<svg width="16" height="16" viewBox="0 0 16 16" fill="none" xmlns="http://www.w3.org/2000/svg">
<path d="M1.91875 2C0.859375 2 0 2.85938 0 3.91875C0 3.94688 0 3.97188 0.003125 4H0V12C0 13.1031 0.896875 14 2 14H14C15.1031 14 16 13.1031 16 12V4H15.9969C15.9969 3.97188 16 3.94688 16 3.91875C16 2.85938 15.1406 2 14.0813 2H1.91875ZM14.5 6.00938V12C14.5 12.275 14.275 12.5 14 12.5H2C1.725 12.5 1.5 12.275 1.5 12V6.00938L6.3375 9.67813C7.31875 10.425 8.67813 10.425 9.6625 9.67813L14.5 6.00938ZM1.5 3.91875C1.5 3.6875 1.6875 3.5 1.91875 3.5H14.0813C14.3125 3.5 14.5 3.6875 14.5 3.91875C14.5 4.05 14.4375 4.175 14.3344 4.25313L8.75625 8.48438C8.30938 8.82188 7.69063 8.82188 7.24375 8.48438L1.66562 4.25313C1.5625 4.175 1.5 4.05 1.5 3.91875Z" fill="#C44D00"/>
</svg>
