<svg width="18" height="16" viewBox="0 0 18 16" fill="none" xmlns="http://www.w3.org/2000/svg">
<path d="M13.1094 3C12.5906 3 12.0875 3.14062 11.6469 3.39687C11.1531 2.89687 10.5781 2.47812 9.94375 2.1625C10.825 1.4125 11.9469 1 13.1094 1C15.8094 1 18 3.1875 18 5.89062C18 7.1875 17.4844 8.43125 16.5688 9.34688L14.3469 11.5688C13.4313 12.4844 12.1875 13 10.8906 13C8.19062 13 6 10.8125 6 8.10938C6 8.0625 6 8.01562 6.00313 7.96875C6.01875 7.41562 6.47812 6.98125 7.03125 6.99687C7.58438 7.0125 8.01875 7.47187 8.00313 8.025C8.00313 8.05312 8.00313 8.08125 8.00313 8.10625C8.00313 9.70312 9.29688 10.9969 10.8938 10.9969C11.6594 10.9969 12.3938 10.6937 12.9375 10.15L15.1594 7.92812C15.7 7.3875 16.0063 6.65 16.0063 5.88438C16.0063 4.2875 14.7125 2.99375 13.1156 2.99375L13.1094 3ZM8.6 5.41563C8.54063 5.39063 8.48125 5.35625 8.42813 5.31875C8.03438 5.11562 7.58438 5 7.1125 5C6.34688 5 5.6125 5.30313 5.06875 5.84688L2.84687 8.06875C2.30625 8.60938 2 9.34688 2 10.1125C2 11.7094 3.29375 13.0031 4.89062 13.0031C5.40625 13.0031 5.90937 12.8656 6.35 12.6094C6.84375 13.1094 7.41875 13.5281 8.05625 13.8438C7.175 14.5906 6.05625 15.0063 4.89062 15.0063C2.19062 15.0063 0 12.8188 0 10.1156C0 8.81875 0.515625 7.575 1.43125 6.65938L3.65313 4.4375C4.56875 3.52188 5.8125 3.00625 7.10938 3.00625C9.81562 3.00625 12 5.2125 12 7.90938C12 7.95 12 7.99063 12 8.03125C11.9875 8.58438 11.5281 9.01875 10.975 9.00625C10.4219 8.99375 9.9875 8.53437 10 7.98125C10 7.95625 10 7.93438 10 7.90938C10 6.85625 9.4375 5.93125 8.6 5.42188V5.41563Z" fill="#C44D00"/>
</svg>
