<svg xmlns="http://www.w3.org/2000/svg" viewBox="0 0 400.4 306.26"><defs><style>.cls-1{fill:none;stroke:#000;stroke-miterlimit:10;}</style></defs><title>Asset 1</title><g id="Layer_2" data-name="Layer 2"><g id="Layer_1-2" data-name="Layer 1"><path class="cls-1" d="M382.15,48.83c-17.67-4.33-31,41.67-31,41.67-12,40-25.33,37.33-25.33,37.33-35.67-69.66-64-62.66-64-62.66-.66-6-7.33-9.67-7.33-9.67,0-10.33-17-17-17-17-2-4-9.67-14.67-9.67-14.67-3-3-12.66-6.33-12.66-6.33,13.67-8.67-4.33-15.67-4.33-15.67-15.67-3-26,0-26,0-20.67,9.67-3,15.67-3,15.67-9.67,2-14.34,7-14.34,7-3,3.33-10.66,14.67-10.66,14.67-16.67,7.33-15.67,17-15.67,17-9.33,3-7.33,8.66-7.33,8.66-16.67-2-26.67,10-26.67,10-27.67-17.66-58-18.66-58-18.66-58,5.33-48,63-48,63,12.33,72,83.33,99,83.33,99,8,37,53.67,54.33,53.67,54.33,8.33,6,5.33,9.33,5.33,9.33.33,1.67-5.33,8-5.33,8,3,10.34,12,10,12,10,44.66,13.34,96,0,96,0,15.33-6.33,9.66-12,9.66-12-9.66-11.33,3.34-15.66,3.34-15.66,37.66-16,58.66-55.34,58.66-55.34,48-7.33,54.67-66.66,54.67-66.66,2.33-43.67,4.33-44.34,4.33-44.34,2.34-34.33,23-41,23-41C398.16,57.17,382.15,48.83,382.15,48.83ZM73.82,175.17s-32.75-14-43.25-49.5c0,0-8.75-25,8.5-36.5,0,0,10.25-8.75,28.5-2,0,0,15.75,6.75,19,11.75C86.57,98.92,65.82,126.17,73.82,175.17Z"/></g></g></svg>