<?xml version="1.0" encoding="UTF-8"?>
<svg width="27px" height="51px" viewBox="0 0 27 51" version="1.1" xmlns="http://www.w3.org/2000/svg" xmlns:xlink="http://www.w3.org/1999/xlink">
    <title>abstract brew</title>
    <g id="inhaltsverseichnis-page" stroke="none" stroke-width="1" fill="none" fill-rule="evenodd">
        <g id="test" transform="translate(-184.000000, -149.000000)" fill="#FFFFFF" fill-rule="nonzero">
            <path d="M197.329968,149.257835 L210.34731,162.275178 L205.851625,170.612835 L210.34731,175.108778 L197.329968,199.257835 L184.312625,175.108778 L188.807625,170.612835 L184.312625,162.275178 L197.329968,149.257835 Z M189.159625,171.266835 L185.190276,175.237313 L191.027625,186.066835 L197.137625,186.066835 L189.159625,171.266835 Z M205.499625,171.266835 L197.521625,186.066835 L203.631625,186.066835 L209.469565,175.237313 L205.499625,171.266835 Z M197.32992,163.097669 L189.684625,170.741835 L197.32996,184.924362 L204.973625,170.741835 L197.32992,163.097669 Z M197.32996,150.264029 L185.190315,162.403674 L189.332625,170.087835 L197.329968,162.091435 L205.326625,170.087835 L209.469605,162.403674 L197.32996,150.264029 Z" id="abstract-brew"></path>
        </g>
    </g>
</svg>