<svg width="600" height="600" viewBox="0 0 600 600" fill="none" xmlns="http://www.w3.org/2000/svg">
<path d="M300.709 421.455L95.055 484.724C86.1374 487.466 77.7703 479.178 80.5385 470.344L144.409 266.625L300.709 421.455Z" fill="#FFD700"/>
<path d="M307.009 417.859C321.998 403.011 298.563 355.723 254.666 312.239C210.769 268.754 163.032 245.54 148.043 260.388C133.054 275.237 156.488 322.524 200.385 366.009C244.283 409.493 292.019 432.707 307.009 417.859Z" fill="#FFD700"/>
<path d="M299.803 410.709C293.936 416.514 280.556 414.897 263.071 406.261C244.692 397.181 223.805 381.519 204.268 362.166C184.732 342.82 168.928 322.131 159.762 303.916C151.043 286.603 149.404 273.342 155.265 267.537C161.125 261.732 174.512 263.355 191.997 271.991C210.377 281.071 231.263 296.726 250.8 316.079C270.337 335.432 286.141 356.122 295.307 374.329C304.024 391.642 305.664 404.904 299.803 410.709Z" fill="black"/>
<path d="M262.915 425.763L226.877 436.77C218.88 433.96 211.017 430.583 203.301 426.654C186.507 418.098 170.348 406.867 155.275 393.277C152.828 391.071 150.149 388.561 147.299 385.758C139.93 378.511 131.435 369.299 122.926 358.223L130.333 334.766C143.863 354.77 158.469 369.662 168.695 378.876C197.477 404.83 229.138 420.577 262.915 425.763Z" fill="black"/>
<path d="M196.283 446.446L169.715 455.441C154.523 446.675 139.903 435.319 126.232 421.661C123.945 419.375 121.44 416.774 118.774 413.868C115.63 410.441 112.272 406.594 108.789 402.333L115.311 379.438C123.957 391.109 132.311 400.272 138.781 406.738C156.811 424.76 176.05 438.03 196.283 446.446Z" fill="black"/>
<path d="M144.461 462.737L121.67 469.439C113.522 464.147 105.604 458.168 97.9912 451.56C96.7209 450.455 95.3827 449.267 93.9844 447.991L100.07 429.438C103.772 433.102 107.228 436.258 110.256 438.889C121.218 448.407 132.636 456.364 144.461 462.737Z" fill="black"/>
<path d="M199.653 292.468L189.914 282.821C205.38 267.501 214.218 247.815 216.185 224.309C217.681 206.427 214.424 192.936 214.391 192.802L227.762 189.531C227.917 190.151 231.543 204.945 229.952 224.932C227.83 251.581 217.353 274.935 199.653 292.468Z" fill="#FFD700"/>
<path d="M277.075 378.803L267.336 369.156C286.406 350.265 313.387 340.763 345.363 341.677C369.1 342.356 387.158 348.461 387.916 348.721L383.41 361.614L385.663 355.167L383.418 361.616C383.249 361.559 366.29 355.864 344.585 355.305C316.266 354.574 293.552 362.48 277.075 378.803Z" fill="#FFD700"/>
<path d="M229.426 278.684C234.417 270.465 240.98 268.319 245.772 266.751C249.827 265.425 252.275 264.625 254.633 260.742C256.991 256.859 256.558 254.341 255.839 250.171C254.991 245.244 253.83 238.495 258.82 230.275C263.811 222.055 270.375 219.908 275.167 218.34C279.223 217.014 281.671 216.213 284.03 212.329C286.388 208.445 285.955 205.928 285.237 201.757C284.389 196.829 283.228 190.08 288.219 181.859L300.021 188.892C297.663 192.776 298.096 195.293 298.814 199.464C299.662 204.392 300.823 211.141 295.832 219.362C290.84 227.581 284.278 229.728 279.486 231.296C275.429 232.622 272.981 233.423 270.622 237.307C268.265 241.189 268.698 243.708 269.416 247.877C270.264 252.805 271.426 259.554 266.435 267.774C261.444 275.994 254.881 278.14 250.089 279.707C246.033 281.033 243.586 281.834 241.227 285.717L229.426 278.684Z" fill="#FFD700"/>
<path d="M286.205 315.253L279.457 303.36C288.156 298.517 295.153 299.91 300.261 300.926C304.687 301.808 307.358 302.34 311.603 299.976C315.848 297.613 316.778 295.076 318.318 290.873C320.096 286.021 322.532 279.377 331.23 274.533C339.93 269.69 346.927 271.083 352.036 272.1C356.462 272.98 359.133 273.512 363.379 271.148C367.625 268.784 368.556 266.247 370.097 262.044C371.876 257.192 374.312 250.547 383.011 245.703L389.759 257.597C385.514 259.961 384.584 262.498 383.043 266.701C381.264 271.554 378.827 278.199 370.128 283.042C361.428 287.886 354.432 286.492 349.323 285.476C344.897 284.594 342.225 284.062 337.979 286.426C333.735 288.789 332.805 291.327 331.265 295.529C329.486 300.382 327.05 307.026 318.352 311.869C309.653 316.712 302.656 315.319 297.547 314.302C293.122 313.422 290.45 312.89 286.205 315.253Z" fill="#FFD700"/>
<path d="M373.488 316.159C377.291 316.159 380.374 313.105 380.374 309.337C380.374 305.57 377.291 302.516 373.488 302.516C369.685 302.516 366.602 305.57 366.602 309.337C366.602 313.105 369.685 316.159 373.488 316.159Z" fill="#FFD700"/>
<path d="M342.804 395.753C346.608 395.753 349.691 392.699 349.691 388.931C349.691 385.164 346.608 382.109 342.804 382.109C339.001 382.109 335.918 385.164 335.918 388.931C335.918 392.699 339.001 395.753 342.804 395.753Z" fill="#FFD700"/>
<path d="M406.113 337.878C409.916 337.878 412.999 334.824 412.999 331.056C412.999 327.289 409.916 324.234 406.113 324.234C402.31 324.234 399.227 327.289 399.227 331.056C399.227 334.824 402.31 337.878 406.113 337.878Z" fill="#FFD700"/>
<path d="M350.113 243.807C353.916 243.807 356.999 240.753 356.999 236.986C356.999 233.218 353.916 230.164 350.113 230.164C346.31 230.164 343.227 233.218 343.227 236.986C343.227 240.753 346.31 243.807 350.113 243.807Z" fill="#FFD700"/>
<path d="M248.832 193.643C252.635 193.643 255.718 190.589 255.718 186.822C255.718 183.054 252.635 180 248.832 180C245.028 180 241.945 183.054 241.945 186.822C241.945 190.589 245.028 193.643 248.832 193.643Z" fill="#FFD700"/>
<path d="M296.554 252.487C300.358 252.487 303.441 249.433 303.441 245.665C303.441 241.898 300.358 238.844 296.554 238.844C292.751 238.844 289.668 241.898 289.668 245.665C289.668 249.433 292.751 252.487 296.554 252.487Z" fill="#FFD700"/>
<path d="M244.453 336.909C248.256 336.909 251.339 333.855 251.339 330.087C251.339 326.32 248.256 323.266 244.453 323.266C240.65 323.266 237.566 326.32 237.566 330.087C237.566 333.855 240.65 336.909 244.453 336.909Z" fill="#FFD700"/>
<path d="M172.383 225.956C176.186 225.956 179.269 222.902 179.269 219.134C179.269 215.367 176.186 212.312 172.383 212.312C168.579 212.312 165.496 215.367 165.496 219.134C165.496 222.902 168.579 225.956 172.383 225.956Z" fill="#FFD700"/>
</svg>
