<?xml version="1.0" encoding="UTF-8"?>
<svg width="794px" height="916px" viewBox="0 0 794 916" version="1.1" xmlns="http://www.w3.org/2000/svg" xmlns:xlink="http://www.w3.org/1999/xlink">
    <!-- Generator: Sketch 51.3 (57544) - http://www.bohemiancoding.com/sketch -->
    <title>Polygon</title>
    <desc>Created with Sketch.</desc>
    <defs></defs>
    <g id="Page-1" stroke="none" stroke-width="1" fill="none" fill-rule="evenodd">
        <path d="M397,0 L793.639635,229 L793.639635,687 L397,916 L0.360365067,687 L0.360365067,229 L397,0 Z M587.15,367.83 C569.48,363.5 556.15,409.5 556.15,409.5 C544.15,449.5 530.82,446.83 530.82,446.83 C495.15,377.17 466.82,384.17 466.82,384.17 C466.16,378.17 459.49,374.5 459.49,374.5 C459.49,364.17 442.49,357.5 442.49,357.5 C440.49,353.5 432.82,342.83 432.82,342.83 C429.82,339.83 420.16,336.5 420.16,336.5 C433.83,327.83 415.83,320.83 415.83,320.83 C400.16,317.83 389.83,320.83 389.83,320.83 C369.16,330.5 386.83,336.5 386.83,336.5 C377.16,338.5 372.49,343.5 372.49,343.5 C369.49,346.83 361.83,358.17 361.83,358.17 C345.16,365.5 346.16,375.17 346.16,375.17 C336.83,378.17 338.83,383.83 338.83,383.83 C322.16,381.83 312.16,393.83 312.16,393.83 C284.49,376.17 254.16,375.17 254.16,375.17 C196.16,380.5 206.16,438.17 206.16,438.17 C218.49,510.17 289.49,537.17 289.49,537.17 C297.49,574.17 343.16,591.5 343.16,591.5 C351.49,597.5 348.49,600.83 348.49,600.83 C348.82,602.5 343.16,608.83 343.16,608.83 C346.16,619.17 355.16,618.83 355.16,618.83 C399.82,632.17 451.16,618.83 451.16,618.83 C466.49,612.5 460.82,606.83 460.82,606.83 C451.16,595.5 464.16,591.17 464.16,591.17 C501.82,575.17 522.82,535.83 522.82,535.83 C570.82,528.5 577.49,469.17 577.49,469.17 C579.82,425.5 581.82,424.83 581.82,424.83 C584.16,390.5 604.82,383.83 604.82,383.83 C603.16,376.17 587.15,367.83 587.15,367.83 Z M278.82,494.17 C278.82,494.17 246.07,480.17 235.57,444.67 C235.57,444.67 226.82,419.67 244.07,408.17 C244.07,408.17 254.32,399.42 272.57,406.17 C272.57,406.17 288.32,412.92 291.57,417.92 C291.57,417.92 270.82,445.17 278.82,494.17 Z" id="Polygon" fill="#D8D8D8"></path>
    </g>
</svg>