<svg width="214" height="234" viewBox="0 0 214 234" fill="none" xmlns="http://www.w3.org/2000/svg">
<path d="M183.455 116.77C183.455 85.2796 159.955 48.8496 108.145 48.8496C61.475 48.8496 32.175 67.4096 24.365 114.36C22.285 126.85 28.295 146.45 31.805 153.29C38.165 170.07 50.685 200.15 61.655 209.05C70.565 216.28 93.225 228.11 104.815 229.02C116.405 228.11 139.065 216.28 147.975 209.05C159.815 199.45 173.445 165.19 179.215 149.59C184.365 137.77 183.465 121.42 183.465 116.77H183.455Z" fill="#FDD6C2"/>
<path d="M86.585 176.519C86.585 176.519 79.305 186.689 70.335 186.689C61.3651 186.689 54.0851 176.519 54.0851 176.519C54.0851 176.519 61.3651 167.189 70.335 167.189C79.305 167.189 86.585 176.519 86.585 176.519Z" fill="white"/>
<path d="M123.045 176.519C123.045 176.519 130.325 186.689 139.295 186.689C148.265 186.689 155.545 176.519 155.545 176.519C155.545 176.519 148.265 167.189 139.295 167.189C130.325 167.189 123.045 176.519 123.045 176.519Z" fill="white"/>
<path d="M80.295 172.571C80.295 171.801 80.195 171.051 80.035 170.331C77.705 167.711 74.295 166.051 70.485 166.051C66.455 166.051 62.865 167.901 60.545 170.781C60.435 171.361 60.375 171.961 60.375 172.561C60.375 178.061 64.835 182.521 70.335 182.521C75.835 182.521 80.295 178.061 80.295 172.561" fill="#231F20"/>
<path d="M129.335 172.571C129.335 171.801 129.435 171.051 129.595 170.331C131.925 167.711 135.335 166.051 139.145 166.051C143.175 166.051 146.765 167.901 149.085 170.781C149.195 171.361 149.255 171.961 149.255 172.561C149.255 178.061 144.795 182.521 139.295 182.521C133.795 182.521 129.335 178.061 129.335 172.561" fill="#231F20"/>
<path d="M149.085 170.79C147.635 168.99 145.695 167.6 143.465 166.8C144.835 167.9 145.695 169.53 145.695 171.35C145.695 174.66 142.825 177.35 139.285 177.35C135.745 177.35 132.875 174.66 132.875 171.35C132.875 169.44 133.825 167.75 135.305 166.65C133.065 167.35 131.095 168.63 129.585 170.34C129.415 171.06 129.325 171.81 129.325 172.58C129.325 178.08 133.785 182.54 139.285 182.54C144.785 182.54 149.245 178.08 149.245 172.58C149.245 171.97 149.185 171.38 149.075 170.8L149.085 170.79Z" fill="#00B608"/>
<path d="M80.035 170.33C78.415 168.51 76.265 167.17 73.815 166.51C75.575 167.58 76.735 169.43 76.735 171.54C76.735 174.85 73.865 177.54 70.325 177.54C66.785 177.54 63.915 174.85 63.915 171.54C63.915 169.53 64.975 167.75 66.595 166.66C64.175 167.43 62.0751 168.87 60.5251 170.78C60.4151 171.36 60.3551 171.96 60.3551 172.56C60.3551 178.06 64.815 182.52 70.315 182.52C75.815 182.52 80.275 178.06 80.275 172.56C80.275 171.79 80.175 171.04 80.015 170.32L80.035 170.33Z" fill="#00B608"/>
<path d="M67.255 172.629C67.255 174.059 66.095 175.219 64.665 175.219C63.235 175.219 62.0751 174.059 62.0751 172.629C62.0751 171.199 63.235 170.039 64.665 170.039C66.095 170.039 67.255 171.199 67.255 172.629Z" fill="white"/>
<path d="M136.265 172.631C136.265 174.061 135.105 175.221 133.675 175.221C132.245 175.221 131.085 174.061 131.085 172.631C131.085 171.201 132.245 170.051 133.675 170.051C135.105 170.051 136.265 171.211 136.265 172.631Z" fill="white"/>
<path d="M155.895 177.289C155.895 177.289 150.955 169.609 140.855 167.689C130.755 165.769 123.035 176.519 123.035 176.519C123.035 176.519 129.325 165.529 136.465 163.679C138.755 163.089 141.595 163.369 141.595 163.369C141.595 163.369 145.755 161.659 146.385 162.039C147.025 162.429 145.595 164.349 145.595 164.349C145.595 164.349 150.295 162.459 150.595 163.119C150.895 163.779 149.235 166.099 149.235 166.099C149.235 166.099 155.085 162.539 155.525 163.479C155.965 164.419 152.945 167.579 152.945 167.579C152.945 167.579 162.505 163.069 162.935 164.819C163.365 166.569 156.285 171.769 156.285 171.769C156.285 171.769 168.495 166.949 168.795 168.769C169.095 170.589 155.755 178.109 155.755 178.109L155.885 177.299L155.895 177.289Z" fill="#231F20"/>
<path d="M53.7351 177.289C53.7351 177.289 58.6751 169.609 68.775 167.689C78.875 165.769 86.595 176.519 86.595 176.519C86.595 176.519 80.305 165.529 73.155 163.679C70.865 163.089 68.025 163.369 68.025 163.369C68.025 163.369 63.865 161.659 63.235 162.039C62.6051 162.429 64.025 164.349 64.025 164.349C64.025 164.349 59.3251 162.459 59.0251 163.119C58.7251 163.779 60.3851 166.099 60.3851 166.099C60.3851 166.099 54.5351 162.539 54.0951 163.479C53.6551 164.419 56.6751 167.579 56.6751 167.579C56.6751 167.579 47.1151 163.069 46.6851 164.819C46.2551 166.569 53.3351 171.769 53.3351 171.769C53.3351 171.769 41.1351 166.949 40.8351 168.769C40.5351 170.589 53.8651 178.109 53.8651 178.109L53.7351 177.299V177.289Z" fill="#231F20"/>
<path d="M205.555 94.5885C212.465 89.1485 208.995 79.3585 206.975 72.3285C206.395 68.9685 202.635 66.5185 199.455 67.7385C196.855 68.6585 191.355 71.0985 191.355 68.9585C191.355 52.7486 189.325 34.0985 170.175 36.3785C165.615 35.9385 160.695 34.4085 157.515 30.4285C160.115 31.6485 162.725 31.0385 165.035 29.5085C163.875 29.5085 162.725 28.5885 161.565 27.9785C150.575 22.1685 142.475 4.12859 128.885 9.32855C125.415 10.8585 124.255 16.0585 121.075 17.8885C114.425 21.8585 103.435 23.0885 99.385 15.1385C101.415 15.4485 104.305 15.1385 105.455 12.9985C101.405 12.9985 98.515 9.63855 95.335 8.10855C90.705 5.65859 86.515 6.72855 82.795 9.26855C76.245 13.3085 73.065 20.6485 66.995 25.8485C63.235 29.2085 58.6051 26.1585 54.5551 26.4585C51.0851 26.7685 48.6251 28.9785 46.4951 31.7685C42.4051 41.1385 34.5951 46.0285 24.4751 43.5785C23.6051 43.5785 23.0251 43.8885 22.4451 44.4985C23.6051 45.1085 25.0451 44.4985 26.2051 45.7185C24.4651 45.7185 23.6051 47.2485 23.0251 48.7785C22.1551 52.7585 23.8951 57.9485 21.2851 59.7885C18.1051 61.7785 15.3351 64.2585 13.0451 67.0885C10.7451 69.9185 8.92509 73.0885 7.69509 76.4585C5.08509 83.6385 4.50509 92.1985 8.84509 98.619C11.1551 101.979 16.0751 102.289 17.8151 105.959C18.6851 107.489 18.3951 109.629 16.6551 110.549C10.8651 113.299 3.34509 117.279 3.63509 124.919C3.92509 131.339 9.99509 132.559 14.0451 135.929C17.2251 138.069 15.7851 142.659 14.3351 146.019C15.7851 144.799 16.0651 142.959 17.5151 141.739C19.2551 146.329 14.6251 149.689 14.6251 154.279C14.9151 154.889 14.9151 155.809 15.2051 156.119C16.9451 157.039 18.9651 154.289 20.7051 156.429C27.3551 165.599 30.5351 175.999 24.4651 186.699C23.3051 188.529 24.1751 191.589 26.2051 193.119C31.9851 196.789 43.5551 201.679 37.7751 210.239C40.6651 210.849 42.9851 207.789 42.4051 204.739C41.2451 197.399 34.8851 194.959 30.8351 189.759C30.2551 188.839 30.8351 187.929 31.1251 187.309C33.4351 182.109 43.5651 182.419 42.1151 176.299C39.8051 166.209 44.4251 157.029 49.2851 149.819C51.1051 146.979 52.9651 144.189 54.5551 141.429C56.8651 137.759 56.0051 133.479 56.2951 129.499C56.5851 124.609 60.0551 121.239 63.885 119.099C66.705 117.419 69.745 115.889 71.915 113.289C72.785 115.739 75.385 117.569 77.415 117.259C80.645 117.009 83.855 116.969 87.055 117.139C90.415 117.459 93.795 117.919 97.175 118.509C100.555 119.099 103.945 119.829 107.355 120.689C130.065 124.909 150.895 138.059 162.175 160.079C158.705 148.769 158.705 133.779 147.715 127.049C158.935 136.769 164.985 150.669 167.935 165.409C167.935 165.409 167.935 165.409 167.935 165.419C170.075 176.219 159.695 181.639 162.185 191.959C162.325 190.869 162.575 188.839 163.165 187.879C166.345 182.679 172.425 180.229 173.865 174.419C177.625 159.129 186.965 157.919 195.355 145.379C201.285 139.369 199.925 134.639 199.785 132.539C199.205 129.209 199.625 127.959 199.775 124.599C200.065 121.539 202.665 119.399 205.275 117.569C206.435 116.649 207.295 114.509 206.725 112.679C204.985 107.179 199.205 101.979 202.645 95.9185C203.355 95.3385 204.335 94.8486 205.605 94.5686L205.555 94.5885Z" fill="#D9253E"/>
</svg>
