<svg width="266" height="435" viewBox="0 0 266 435" fill="none" xmlns="http://www.w3.org/2000/svg">
<path d="M49.9835 203.957C45.4665 210.93 40.1575 217.55 33.8235 222.085C27.4895 226.62 20.0015 228.841 14.1085 226.624C12.2525 225.926 10.5185 224.72 9.78246 222.653C8.71646 219.657 10.0405 215.507 12.2355 212.431C14.4305 209.354 17.3564 207.112 20.2074 204.946C19.0714 204.297 18.1375 203.784 17.6055 202.446C17.0735 201.107 17.1825 199.217 18.1705 197.797C19.0305 196.561 20.3795 195.904 21.6055 195.739C22.8315 195.575 23.9815 195.825 25.1385 195.999C31.4775 196.948 38.5314 195.509 45.1164 191.925C48.3514 194.429 49.8465 199.016 49.9835 203.957Z" fill="#006A7A"/>
<path d="M236.533 39.6158C236.161 31.3158 236.639 22.8428 239.162 15.4728C241.685 8.10283 246.491 1.94587 252.576 0.327868C254.492 -0.181132 256.604 -0.207185 258.404 1.04882C261.012 2.86782 262.344 7.01585 262.343 10.7948C262.343 14.5748 261.263 18.0989 260.199 21.5179C261.501 21.3869 262.56 21.2618 263.77 22.0428C264.98 22.8238 265.989 24.4259 266.01 26.1559C266.028 27.6619 265.31 28.9799 264.407 29.8259C263.504 30.6719 262.422 31.1358 261.38 31.6658C255.669 34.5748 250.761 39.8419 247.482 46.5839C243.395 46.4259 239.513 43.5598 236.533 39.6158Z" fill="#006A7A"/>
<path d="M225.513 314.901C220.993 320.241 214.853 323.931 208.733 327.311C196.813 333.901 185.424 339.771 174.214 345.481C154.434 355.551 135.213 365.121 114.593 377.281C107.383 381.541 99.9935 386.121 92.3535 391.141C88.7035 393.551 84.9935 396.051 81.2135 398.681C69.8735 406.561 56.5635 417.111 45.3535 425.171C41.1435 428.201 36.6135 430.951 31.7635 432.721C29.4835 433.561 27.1335 434.181 24.7135 434.511C17.1535 435.541 8.8035 433.311 4.0235 427.371C-2.4965 419.281 -0.496508 406.801 5.76349 398.521C12.0235 390.241 21.5335 385.181 30.7335 380.371C31.3235 380.071 31.9135 379.771 32.5035 379.461C43.5735 373.781 54.5535 367.921 65.5735 362.161C74.7035 357.391 83.9135 352.791 92.9635 347.911C100.214 344.001 107.373 339.921 114.303 335.431C115.283 334.791 116.263 334.141 117.233 333.491C136.673 320.431 156.273 307.611 175.793 294.681C176.163 294.441 176.523 294.191 176.893 293.951C185.763 288.071 195.084 282.021 205.654 280.861C216.234 279.701 228.353 285.151 231.013 295.461C232.763 302.231 230.043 309.561 225.513 314.901Z" fill="#6CB6B5"/>
<g opacity="0.36">
<path d="M92.9635 347.911L92.3535 391.141C88.7035 393.551 84.9935 396.051 81.2135 398.681C69.8735 406.561 56.5635 417.111 45.3535 425.171C41.1435 428.201 36.6135 430.951 31.7635 432.721L32.5035 379.461C43.5735 373.781 54.5535 367.921 65.5735 362.161C74.7035 357.391 83.9135 352.791 92.9635 347.911Z" fill="white"/>
</g>
<g opacity="0.36">
<path d="M175.793 294.681C174.813 311.561 174.283 328.531 174.213 345.481C154.433 355.551 135.213 365.121 114.593 377.281C114.203 363.361 114.103 349.391 114.303 335.431C115.283 334.791 116.263 334.141 117.233 333.491C136.673 320.431 156.273 307.611 175.793 294.681Z" fill="white"/>
</g>
<path d="M93.9035 338.084C89.5175 339.173 85.2204 340.637 81.0854 342.442C72.4554 346.209 68.8275 355.71 73.0035 363.117C77.6485 371.358 83.2535 379.122 89.4635 386.42C90.4765 387.611 92.3224 387.994 93.8664 387.258C95.6544 386.405 97.1804 384.627 97.8714 382.836C98.9784 379.965 98.2725 376.883 97.2975 374.084C96.3225 371.285 95.0734 368.497 95.1184 365.509C95.1834 361.176 97.9304 357.161 100.58 353.423C100.426 347.493 98.0085 342.476 93.9035 338.084Z" fill="#006A7A"/>
<path d="M161.316 299.74C156.93 300.829 152.634 302.293 148.499 304.098C139.869 307.865 136.242 317.366 140.417 324.773C145.062 333.014 150.666 340.778 156.876 348.076C157.889 349.267 159.736 349.65 161.28 348.914C163.068 348.061 164.594 346.283 165.285 344.492C166.393 341.621 165.685 338.539 164.71 335.74C163.735 332.941 162.487 330.153 162.532 327.165C162.597 322.832 165.343 318.817 167.993 315.079C167.84 309.15 165.421 304.132 161.316 299.74Z" fill="#006A7A"/>
<path d="M190.145 192.271C186.358 206.206 189.014 224.078 190.145 238.474C191.276 252.87 191.68 270.31 189.063 284.511C186.446 298.712 180.498 315.256 167.992 322.476C162.068 325.896 152.733 314.898 149.481 308.88C145.248 301.049 152.008 283.606 158.068 277.086C144.094 260.654 140.192 239.429 138.802 217.904C138.248 209.331 139.502 201.859 145.382 195.595C151.398 189.185 153.914 196.883 162.652 195.916C172.432 194.832 180.427 190.718 190.145 192.271Z" fill="#FFB246"/>
<path d="M107.718 207.903C96.5014 237.092 96.3615 270.387 107.334 299.669C107.098 299.212 106.861 298.755 106.625 298.298C98.6945 304.217 90.6045 312.446 85.0535 320.638C79.5025 328.83 76.8564 339.677 80.7704 348.766C84.2364 356.815 92.0565 362.059 99.8445 366.077C116.61 350.574 132.71 333.924 141.048 312.666C145.748 300.685 147.334 287.655 147.13 274.786C146.796 253.7 148.823 222.453 140.295 203.166C132.766 199.267 116.151 207.033 107.718 207.903Z" fill="#FFB246"/>
<path d="M127.992 113.876C108.108 120.18 90.0155 131.502 74.5355 145.485C59.0565 159.468 46.1085 176.076 34.9185 193.681C37.9425 199.968 42.5135 204.387 48.3375 208.228C76.2165 196.098 100.506 176.821 119.038 152.718C123.885 146.414 145.371 129.653 147.861 122.1C150.352 114.548 134.496 118.45 127.992 113.876Z" fill="#FF8E76"/>
<path d="M169.038 103.855C170.314 95.2959 174.051 87.2329 178.98 80.1199C183.909 73.0069 190.011 66.7839 196.388 60.9349C208.564 49.7659 221.863 39.8208 236.018 31.2988C242.644 31.8638 248.492 34.7349 253.19 39.4409C242.075 80.4829 211.761 115.749 172.93 133.075C172.245 133.381 171.48 133.686 170.765 133.457C169.751 133.131 169.36 131.928 169.141 130.886C167.441 122.781 167.817 112.045 169.038 103.855Z" fill="#FF8E76"/>
<path d="M111.833 178.543C109.76 187.165 104.908 194.819 101.503 203.007C99.5325 207.747 98.0834 213.318 100.47 217.862C102.956 222.595 108.701 224.508 113.978 225.366C123.329 226.887 132.89 226.457 142.316 225.507C151.054 224.627 159.821 223.285 168.051 220.221C176.281 217.157 184.003 212.259 189.311 205.262C197.168 194.906 198.948 181.25 199.527 168.264C199.937 159.05 199.873 149.744 198.026 140.708C196.179 131.672 192.454 122.863 186.256 116.034C181.964 111.306 176.313 107.522 169.98 106.709C161.357 105.603 153.037 110.045 145.868 114.962C134.584 122.699 121.721 132.673 114.38 144.446C108.082 154.545 114.51 167.408 111.833 178.543Z" fill="#FF8E76"/>
<path d="M131.085 96.5318C128.263 96.7078 125.394 98.0008 123.889 100.395C122.811 102.11 122.52 104.233 122.743 106.246C123.375 111.965 128 116.715 133.405 118.687C138.81 120.66 144.833 120.226 150.402 118.779C156.947 117.078 163.212 113.953 168.012 109.191C172.813 104.429 176.054 97.9508 176.275 91.1918C176.332 89.4638 176.188 87.6988 175.534 86.0978C174.881 84.4968 173.666 83.0708 172.053 82.4488C169.536 81.4778 166.649 82.6418 164.599 84.3948C162.548 86.1478 161.04 88.4478 159.11 90.3338C155.352 94.0058 150.289 95.8428 145.293 97.1178C143.223 97.6468 141.133 98.2658 138.993 97.8718C136.307 97.3778 133.885 96.3568 131.085 96.5318Z" fill="#6CB6B5"/>
<path d="M132.931 101.042C130.439 99.0781 128.534 96.4721 126.915 93.7511C125.274 90.9911 123.859 87.9121 124.074 84.7091C124.292 81.4591 126.164 78.5361 128.35 76.1041C134.893 68.8251 145.582 64.7121 154.876 67.8121C157.988 68.8501 160.947 70.7561 162.494 73.6321C163.971 76.3791 164.003 79.6691 163.621 82.7641C162.943 88.2481 160.995 93.7051 157.303 97.8461C151.403 104.464 140.206 106.775 132.931 101.042Z" fill="#FFE7CB"/>
<path d="M156.387 69.0526C157.801 73.8106 156.5 79.8276 160.754 83.3786C163.806 85.9266 168.296 85.5906 170.698 82.3396C174.495 77.2006 172.867 69.5487 170.724 64.1117C166.693 53.8837 156.713 45.6516 145.881 43.7216C138.816 42.4626 131.2 43.9566 125.429 48.2226C121.372 51.2226 118.33 55.6056 116.976 60.4696C115.467 65.8926 116.759 71.6296 117.925 77.0146C130.722 71.1826 142.327 68.6556 156.387 69.0526Z" fill="#FFB246"/>
<path d="M170.491 65.3491C153.137 59.5071 132.665 62.7961 117.996 73.8111C117.078 74.5001 116.541 75.6101 116.584 76.7561C116.747 81.1331 118.823 85.0401 122.168 88.1431C123.28 89.1751 124.584 90.0881 126.097 90.3931C127.611 90.6981 129.364 90.2761 130.293 89.0631C131.516 87.4691 131.299 84.7461 133.202 84.0161C134.53 83.5071 135.915 84.4111 137.155 85.0701C140.505 86.8511 144.763 86.9601 148.249 85.3531C151.736 83.7461 154.363 80.4651 155.095 76.8031C155.521 74.6711 158.839 73.5481 161.038 73.1241C163.237 72.6991 165.501 72.8701 167.72 73.1221C169.305 73.3021 171.134 73.4491 172.293 72.3691C173.164 71.5571 173.181 69.8681 172.964 68.3101C172.771 66.9271 171.814 65.7941 170.491 65.3491Z" fill="#006A7A"/>
<path d="M159.056 113.779C161.544 116.823 165.063 118.84 168.637 120.479C177.831 124.697 188.145 127.005 195.9 133.499C200.67 137.493 204.2 142.949 205.886 148.937C206.3 144.004 207.412 139.101 207.129 134.159C206.845 129.217 204.836 124.002 200.55 121.525C197.985 120.043 194.94 119.713 192.009 119.281C182.577 117.891 172.712 114.692 166.921 107.118C165.046 104.666 160.498 98.3106 156.972 102.395C154.349 105.434 156.978 111.236 159.056 113.779Z" fill="#6CB6B5"/>
<path d="M173.816 99.7739C178.876 100.606 183.617 102.726 188.378 104.631C193.139 106.536 198.102 108.264 203.23 108.244C211.319 108.212 218.662 103.9 225.97 100.431C233.278 96.9619 241.855 94.2399 249.3 97.4029C241.284 97.5169 234.128 102.206 227.656 106.938C221.184 111.67 214.501 116.786 206.574 117.986C199.276 119.091 191.969 116.713 184.819 114.879C179 113.386 173.091 112.238 167.137 111.444C163.304 110.933 156.766 108.338 159.548 103.181C161.887 98.8459 169.785 99.1109 173.816 99.7739Z" fill="#6CB6B5"/>
<path d="M123.06 147.432C120.095 152.47 116.101 156.872 111.345 160.278C110.903 160.595 110.702 161.146 110.986 161.646C111.234 162.083 111.916 162.318 112.354 162.005C117.394 158.396 121.64 153.786 124.786 148.442C125.442 147.33 123.714 146.322 123.06 147.432Z" fill="#F27C64"/>
<path d="M70.6855 149.543C67.3915 153.95 65.8204 159.565 66.3404 165.042C66.4614 166.312 68.4624 166.325 68.3404 165.042C67.8484 159.864 69.2985 154.718 72.4125 150.552C73.1835 149.522 71.4485 148.523 70.6855 149.543Z" fill="#F27C64"/>
<path d="M200.66 58.0608C200.239 57.8148 199.506 57.9208 199.292 58.4198C198.003 61.4178 197.231 64.5678 197.019 67.8268C196.984 68.3668 197.504 68.8268 198.019 68.8268C198.589 68.8268 198.984 68.3678 199.019 67.8268C199.207 64.9478 199.879 62.0818 201.019 59.4288C201.232 58.9328 201.166 58.3568 200.66 58.0608Z" fill="#F27C64"/>
<path d="M171.304 140.37C168.892 132.988 165.61 125.897 161.508 119.302C160.83 118.211 159.099 119.214 159.781 120.311C166.883 131.729 171.425 144.602 173.332 157.902C175.242 171.222 174.474 184.958 171.039 197.969C169.099 205.317 166.298 212.409 162.664 219.084C162.048 220.215 163.774 221.226 164.391 220.094C170.948 208.053 174.812 194.683 175.973 181.034C177.135 167.362 175.566 153.418 171.304 140.37Z" fill="#F27C64"/>
<path d="M158.072 186.727C150.016 192.846 139.2 194.589 129.639 191.267C128.421 190.844 127.896 192.775 129.106 193.195C139.108 196.67 150.645 194.861 159.081 188.453C160.093 187.685 159.098 185.948 158.072 186.727Z" fill="#F27C64"/>
<path d="M196.813 177.445C196.566 177.023 195.876 176.756 195.444 177.086C192.297 179.49 187.907 180.099 184.283 178.415C183.793 178.188 183.205 178.277 182.915 178.774C182.662 179.207 182.782 179.914 183.274 180.142C187.511 182.11 192.713 181.671 196.454 178.813C196.882 178.485 197.109 177.951 196.813 177.445Z" fill="#F27C64"/>
<path d="M171.243 277.567C167.302 275.797 162.941 275.324 158.717 276.252C157.46 276.528 157.991 278.457 159.248 278.18C162.907 277.376 166.813 277.756 170.235 279.294C170.727 279.515 171.309 279.436 171.602 278.935C171.852 278.507 171.738 277.789 171.243 277.567Z" fill="#F0991F"/>
<path d="M115.347 308.952C112.154 306.101 109.658 302.517 108.16 298.503C107.971 297.997 107.484 297.652 106.93 297.805C106.444 297.939 106.042 298.527 106.232 299.035C107.851 303.372 110.477 307.28 113.934 310.367C114.89 311.222 116.31 309.812 115.347 308.952Z" fill="#F0991F"/>
<path d="M147.227 244.457C146.872 249.156 146.517 253.856 146.162 258.554C146.065 259.838 148.066 259.832 148.162 258.554C148.517 253.855 148.872 249.155 149.227 244.457C149.324 243.173 147.324 243.18 147.227 244.457Z" fill="#F0991F"/>
<path d="M131.38 94.1512C132.81 94.5232 134.041 94.7032 135.233 94.7242C136.418 94.7482 137.535 94.6112 138.581 94.3152C139.626 94.0162 140.649 93.5492 141.646 92.9102C142.65 92.2692 143.606 91.4732 144.634 90.4102C144.791 91.8982 144.218 93.4132 143.269 94.6222C142.312 95.8342 140.945 96.7682 139.396 97.2012C137.849 97.6382 136.196 97.5561 134.747 97.0231C133.306 96.4891 132.026 95.4992 131.38 94.1512Z" fill="#FF8E76"/>
<path d="M150.734 78.7403C148.1 82.5413 143.002 84.0133 138.754 82.1463C138.256 81.9273 137.686 82.0043 137.386 82.5053C137.133 82.9273 137.251 83.6563 137.745 83.8733C140.399 85.0393 143.39 85.3152 146.177 84.4372C148.749 83.6272 150.931 81.9573 152.461 79.7493C153.195 78.6893 151.462 77.6883 150.734 78.7403Z" fill="#6CB6B5"/>
<path d="M130.115 85.384C129.994 85.176 129.756 84.979 129.517 84.925C129.261 84.867 128.974 84.879 128.746 85.026C128.512 85.177 128.393 85.3689 128.286 85.6239C128.413 85.3209 128.266 85.646 128.226 85.717C128.178 85.802 128.123 85.881 128.069 85.962C128.047 85.988 128.026 86.0139 128.003 86.0379C127.934 86.1149 127.861 86.188 127.785 86.258C127.751 86.289 127.716 86.3169 127.683 86.3479C127.612 86.3969 127.542 86.447 127.468 86.492C127.379 86.546 127.288 86.597 127.194 86.643C127.167 86.657 127.136 86.67 127.106 86.685C127.102 86.687 127.098 86.688 127.094 86.69C126.908 86.76 126.716 86.814 126.52 86.852C126.475 86.861 126.425 86.863 126.38 86.876C126.396 86.871 126.399 86.871 126.412 86.867C126.321 86.874 126.23 86.879 126.139 86.879C126.047 86.879 125.954 86.872 125.862 86.865C125.876 86.868 125.891 86.8699 125.9 86.8739C125.887 86.8679 125.867 86.8679 125.849 86.8639C125.842 86.8629 125.836 86.863 125.829 86.863C125.719 86.855 125.756 86.852 125.811 86.857C125.783 86.853 125.755 86.847 125.734 86.842C125.642 86.822 125.551 86.797 125.462 86.768C125.422 86.755 125.344 86.713 125.302 86.711C125.304 86.712 125.306 86.7129 125.306 86.7129C124.837 86.5029 124.226 86.583 123.964 87.079C123.729 87.524 123.818 88.2069 124.323 88.4469C125.369 88.9439 126.59 89.023 127.678 88.597C128.252 88.372 128.765 88.0759 129.219 87.6529C129.673 87.2309 129.977 86.721 130.213 86.156C130.309 85.933 130.231 85.581 130.115 85.384Z" fill="#6CB6B5"/>
<path d="M125.865 86.8635C125.847 86.8595 125.832 86.8575 125.814 86.8555C125.828 86.8575 125.839 86.8605 125.852 86.8625C125.856 86.8635 125.86 86.8635 125.865 86.8635Z" fill="#6CB6B5"/>
<path d="M126.415 86.8654C126.418 86.8654 126.421 86.8654 126.424 86.8654C126.518 86.8564 126.606 86.8104 126.415 86.8654Z" fill="#6CB6B5"/>
<path d="M30.2635 204.928C30.1125 204.381 29.5635 204.117 29.0335 204.23C26.4365 204.78 23.7355 204.789 21.1345 204.253C20.6055 204.144 20.0535 204.407 19.9045 204.951C19.7685 205.446 20.0715 206.072 20.6025 206.181C23.5685 206.793 26.6015 206.786 29.5645 206.158C30.0935 206.046 30.3995 205.426 30.2635 204.928Z" fill="#005966"/>
<path d="M261.064 21.8031C260.739 21.2991 260.213 21.2261 259.695 21.4441C257.904 22.2001 256.262 23.2491 254.789 24.5171C254.391 24.8591 254.411 25.5851 254.789 25.9311C255.213 26.3201 255.78 26.2961 256.204 25.9311C256.372 25.7871 256.541 25.6451 256.714 25.5071C256.757 25.4721 256.801 25.4381 256.844 25.4041C256.857 25.3941 256.853 25.3961 256.862 25.3891C256.867 25.3861 256.862 25.3901 256.871 25.3831C256.96 25.3171 257.048 25.2501 257.137 25.1851C257.506 24.9161 257.884 24.6621 258.272 24.4221C259.049 23.9431 259.864 23.5261 260.705 23.1711C260.919 23.0811 261.105 22.7851 261.163 22.5731C261.23 22.3351 261.201 22.0161 261.064 21.8031Z" fill="#005966"/>
<path d="M174.469 99.1702C168.548 95.4062 160.73 97.1062 156.783 102.847C156.052 103.91 157.785 104.912 158.51 103.856C161.859 98.9852 168.507 97.7472 173.46 100.896C174.549 101.59 175.554 99.8602 174.469 99.1702Z" fill="#55A6A5"/>
<path d="M173.053 110.653C168.983 108.155 164.682 105.844 160.186 104.205C156.041 102.694 151.385 102.2 147.407 104.45C146.287 105.084 147.294 106.812 148.417 106.177C152.211 104.031 156.624 104.928 160.47 106.444C164.497 108.031 168.361 110.119 172.045 112.379C173.145 113.055 174.15 111.326 173.053 110.653Z" fill="#55A6A5"/>
<path d="M160.483 114.18C160.307 114.073 160.134 113.962 159.965 113.844C159.888 113.791 159.813 113.736 159.738 113.68C159.725 113.67 159.695 113.647 159.673 113.631C159.359 113.381 159.061 113.111 158.78 112.824C158.643 112.683 158.509 112.539 158.381 112.39C158.32 112.319 158.26 112.248 158.201 112.175C158.178 112.147 158.155 112.116 158.131 112.086C157.89 111.766 157.671 111.431 157.472 111.083C157.212 110.629 156.554 110.433 156.103 110.724C155.645 111.019 155.466 111.607 155.744 112.092C156.639 113.653 157.937 114.972 159.475 115.905C159.923 116.177 160.593 116.018 160.842 115.546C161.099 115.062 160.961 114.469 160.483 114.18Z" fill="#55A6A5"/>
<path d="M164.159 98.7552C163.633 96.5982 163.363 94.4202 163.342 92.1982C163.337 91.6582 162.886 91.1982 162.342 91.1982C161.804 91.1982 161.337 91.6562 161.342 92.1982C161.365 94.5842 161.665 96.9692 162.23 99.2872C162.358 99.8122 162.95 100.126 163.46 99.9852C163.996 99.8392 164.288 99.2822 164.159 98.7552Z" fill="#55A6A5"/>
<path d="M162.377 327.881C160.351 325.094 157.094 323.372 153.633 323.373C152.346 323.373 152.344 325.373 153.633 325.373C156.324 325.372 159.048 326.686 160.65 328.89C160.967 329.326 161.519 329.541 162.018 329.249C162.449 328.997 162.696 328.32 162.377 327.881Z" fill="#117887"/>
<path d="M95.2295 367.967C92.8985 365.034 88.5754 363.865 85.0804 365.209C84.5764 365.403 84.2284 365.882 84.3824 366.439C84.5154 366.921 85.1055 367.332 85.6125 367.137C88.5055 366.025 91.8665 366.929 93.8155 369.381C94.1515 369.804 94.8785 369.732 95.2295 369.381C95.6475 368.963 95.5665 368.391 95.2295 367.967Z" fill="#117887"/>
<path d="M77.1995 348.024C75.5155 351.156 75.1775 354.938 76.3635 358.301C76.5435 358.81 77.0465 359.15 77.5935 358.999C78.0865 358.863 78.4725 358.28 78.2915 357.769C77.2815 354.904 77.4825 351.718 78.9265 349.033C79.5355 347.9 77.8095 346.889 77.1995 348.024Z" fill="#117887"/>
<path d="M147.989 308.409C147.572 307.991 146.999 308.071 146.575 308.409C144.152 310.341 142.489 313.25 142.066 316.32C141.992 316.854 142.195 317.394 142.764 317.55C143.231 317.678 143.92 317.39 143.994 316.852C144.382 314.037 145.766 311.595 147.989 309.823C148.412 309.486 148.341 308.76 147.989 308.409Z" fill="#117887"/>
</svg>
