<svg width="109" height="149" viewBox="0 0 109 149" fill="none" xmlns="http://www.w3.org/2000/svg">
<path d="M71.489 141.182H29.22L35.078 94.8101H65.631L71.489 141.182Z" fill="#57DAB2"/>
<path d="M36.667 145.526H108.524C108.524 145.526 102.691 121.841 78.857 121.841C55.024 121.841 36.667 145.526 36.667 145.526Z" fill="#79393A"/>
<path d="M91.845 47.6389C91.845 47.6389 76.282 46.2409 82.855 65.9569L76.894 72.1739V66.1159C76.894 55.6849 68.36 47.1509 57.929 47.1509H37.671C27.74 47.1509 19.614 55.2769 19.614 65.2079V77.0609C19.614 89.6759 29.935 99.9969 42.55 99.9969H64.265C65.471 99.9969 66.635 99.8159 67.742 99.4959C68.387 99.5049 69.047 99.4299 69.712 99.2349C77.52 96.9509 88.635 93.4549 89.341 91.8729C90.436 89.4199 97.322 66.5729 97.322 66.5729L91.845 47.6389Z" fill="#57DAB2"/>
<path d="M70.571 95.9381C69.894 96.1331 69.223 96.2082 68.567 96.1992C67.441 96.5192 66.257 96.7002 65.03 96.7002H42.943C30.112 96.7002 19.613 86.3792 19.613 73.7642V77.0612C19.613 89.6762 29.934 99.9972 42.549 99.9972H64.264C65.47 99.9972 66.634 99.8162 67.741 99.4962C68.386 99.5052 69.046 99.4301 69.711 99.2351C77.519 96.9511 88.634 93.4551 89.34 91.8731C89.542 91.4201 89.943 90.2672 90.461 88.6942C89.272 90.3262 78.322 93.7091 70.571 95.9381Z" fill="#4EB794"/>
<path d="M74.663 62.828L77.299 33.85L72.591 17.078L61.646 0.896973C61.646 0.896973 50.261 10.471 60.527 20.642L63.996 34.06L60.835 53.907L74.663 62.828Z" fill="#57DAB2"/>
<path d="M59.395 64.084L60.146 34.024L54.153 17.048L41.769 1.10498C41.769 1.10498 30.679 11.751 41.955 21.542L46.443 35.143L44.53 55.823L59.395 64.084Z" fill="#57DAB2"/>
<path d="M45.879 63.9641L43.28 37.3582L36.15 23.0291L23.492 10.3062C23.492 10.3062 14.861 20.9031 25.874 28.3181L31.31 39.8322L31.866 58.2871L45.879 63.9641Z" fill="#57DAB2"/>
<path d="M37.928 67.0701L29.681 44.1111L20.169 33.028L6.126 24.6011C6.126 24.6011 0.859001 35.9061 12.26 40.0051L19.644 48.9771L24.262 65.1811L37.928 67.0701Z" fill="#57DAB2"/>
<path d="M71.857 145.526H0C0 145.526 5.833 121.841 29.667 121.841C53.5 121.841 71.857 145.526 71.857 145.526Z" fill="#79393A"/>
<path d="M55.655 138.514C61.1491 138.514 65.603 134.06 65.603 128.566C65.603 123.072 61.1491 118.618 55.655 118.618C50.1609 118.618 45.707 123.072 45.707 128.566C45.707 134.06 50.1609 138.514 55.655 138.514Z" fill="#79393A"/>
<path d="M44.764 115.654C44.764 118.476 42.476 120.763 39.655 120.763C36.834 120.763 34.546 118.475 34.546 115.654C34.546 112.832 36.833 110.545 39.655 110.545C42.477 110.545 44.764 112.832 44.764 115.654Z" fill="#79393A"/>
<path d="M26.493 109.174C28.3393 109.174 29.836 107.677 29.836 105.831C29.836 103.984 28.3393 102.488 26.493 102.488C24.6467 102.488 23.15 103.984 23.15 105.831C23.15 107.677 24.6467 109.174 26.493 109.174Z" fill="#79393A"/>
<path d="M26.753 121.841C26.753 124.786 24.365 127.174 21.42 127.174C18.474 127.174 16.087 124.786 16.087 121.841C16.087 118.895 18.475 116.508 21.42 116.508C24.365 116.507 26.753 118.895 26.753 121.841Z" fill="#79393A"/>
<path d="M71.269 118.548C74.3988 118.548 76.936 116.011 76.936 112.881C76.936 109.751 74.3988 107.214 71.269 107.214C68.1392 107.214 65.602 109.751 65.602 112.881C65.602 116.011 68.1392 118.548 71.269 118.548Z" fill="#79393A"/>
<path d="M75.9187 141.952C79.4725 138.398 79.4725 132.636 75.9187 129.082C72.365 125.529 66.6032 125.529 63.0495 129.082C59.4958 132.636 59.4958 138.398 63.0495 141.952C66.6032 145.505 72.365 145.505 75.9187 141.952Z" fill="#79393A"/>
<path d="M28.988 65.0908C28.988 65.0908 50.05 63.8408 65.602 54.8408C65.602 54.8408 52.822 67.5068 28.988 65.0908Z" fill="#4EB794"/>
<path d="M68.322 65.957C68.322 65.957 49.27 72.174 45.879 90.174C45.879 90.174 40.669 70 68.322 65.957Z" fill="#4EB794"/>
<path d="M14.353 29.6168C13.92 30.3658 12.953 30.6258 12.204 30.1928L5.67699 26.4248C4.92799 25.9918 4.66799 25.0248 5.10099 24.2758C5.53399 23.5268 6.50099 23.2668 7.24999 23.6998L13.777 27.4678C14.527 27.8998 14.786 28.8678 14.353 29.6168Z" fill="#FB8D02"/>
<path d="M30.692 17.2229C30.08 17.8349 29.079 17.8349 28.467 17.2229L23.138 11.894C22.526 11.282 22.526 10.281 23.138 9.66896C23.75 9.05696 24.751 9.05696 25.363 9.66896L30.692 14.9979C31.303 15.6099 31.303 16.6109 30.692 17.2229Z" fill="#FB8D02"/>
<path d="M47.734 9.31586C47.07 9.87086 46.073 9.78186 45.518 9.11786L40.685 3.33484C40.13 2.67084 40.219 1.67384 40.883 1.11884C41.547 0.563841 42.544 0.652839 43.099 1.31684L47.932 7.09986C48.487 7.76386 48.398 8.76086 47.734 9.31586Z" fill="#FB8D02"/>
<path d="M67.584 9.05302C66.873 9.54702 65.888 9.37001 65.394 8.65901L61.093 2.47002C60.599 1.75902 60.776 0.774014 61.487 0.280014C62.198 -0.213986 63.183 -0.0369737 63.677 0.674026L67.978 6.86302C68.472 7.57302 68.295 8.55902 67.584 9.05302Z" fill="#FB8D02"/>
<path d="M94.701 57.4349C93.874 57.6879 92.989 57.2179 92.736 56.3909L90.53 49.1849C90.277 48.3569 90.746 47.4729 91.574 47.2199C92.401 46.9669 93.286 47.4369 93.539 48.2639L95.745 55.4699C95.999 56.2969 95.529 57.1809 94.701 57.4349Z" fill="#FB8D02"/>
</svg>
