<?xml version="1.0" encoding="UTF-8"?>
<svg width="24px" height="24px" viewBox="0 0 24 24" version="1.1" xmlns="http://www.w3.org/2000/svg" xmlns:xlink="http://www.w3.org/1999/xlink">
    <!-- Generator: Sketch 51.3 (57544) - http://www.bohemiancoding.com/sketch -->
    <title>Brands/behance</title>
    <desc>Created with Sketch.</desc>
    <defs>
        <path d="M9.66666667,11.2166667 C10.9916667,10.5833333 11.6833333,9.625 11.6833333,8.13333333 C11.6833333,5.19166667 9.49166667,4.475 6.9625,4.475 L0,4.475 L0,19.2416667 L7.15833333,19.2416667 C9.84166667,19.2416667 12.3625,17.9541667 12.3625,14.9541667 C12.3625,13.1 11.4833333,11.7291667 9.66666667,11.2166667 Z M3.24583333,6.99583333 L6.29166667,6.99583333 C7.4625,6.99583333 8.51666667,7.325 8.51666667,8.68333333 C8.51666667,9.9375 7.69583333,10.4416667 6.5375,10.4416667 L3.24583333,10.4416667 L3.24583333,6.99583333 Z M6.71666667,16.7333333 L3.24583333,16.7333333 L3.24583333,12.6666667 L6.78333333,12.6666667 C8.2125,12.6666667 9.11666667,13.2625 9.11666667,14.775 C9.11666667,16.2666667 8.0375,16.7333333 6.71666667,16.7333333 Z M21.6541667,6.70416667 L15.6666667,6.70416667 L15.6666667,5.25 L21.6541667,5.25 L21.6541667,6.70416667 Z M24,14.05 C24,10.8875 22.15,8.25 18.7958333,8.25 C15.5375,8.25 13.325,10.7 13.325,13.9083333 C13.325,17.2375 15.4208333,19.5208333 18.7958333,19.5208333 C21.35,19.5208333 23.0041667,18.3708333 23.8,15.925 L21.2083333,15.925 C20.9291667,16.8375 19.7791667,17.3208333 18.8875,17.3208333 C17.1666667,17.3208333 16.2625,16.3125 16.2625,14.6 L23.975,14.6 C23.9875,14.425 24,14.2375 24,14.05 Z M16.2666667,12.75 C16.3625,11.3458333 17.2958333,10.4666667 18.7041667,10.4666667 C20.1791667,10.4666667 20.9208333,11.3333333 21.0458333,12.75 L16.2666667,12.75 Z" id="path-1"></path>
    </defs>
    <g id="Brands/behance" stroke="none" stroke-width="1" fill="none" fill-rule="evenodd">
        <mask id="mask-2" fill="white">
            <use xlink:href="#path-1"></use>
        </mask>
        <g id="Mask"></g>
        <g id="Color/Black" mask="url(#mask-2)" fill="#CA1EC4">
            <rect id="Black" x="0" y="0" width="24" height="24"></rect>
        </g>
    </g>
</svg>