<?xml version="1.0" encoding="UTF-8"?>
<svg width="24px" height="24px" viewBox="0 0 24 24" version="1.1" xmlns="http://www.w3.org/2000/svg" xmlns:xlink="http://www.w3.org/1999/xlink">
    <title>Brands/codepen</title>
    <defs>
        <path d="M23.4987135,7.49492398 L12.551345,0.196678363 C12.1776842,-0.0332631579 11.7789006,-0.0353684211 11.4018246,0.196678363 L0.45445614,7.49492398 C0.173754386,7.6820117 0,8.01623392 0,8.35036257 L0,15.6485614 C0,15.9827368 0.173754386,16.3169123 0.454502924,16.5040468 L11.4018713,23.8033216 C11.7755322,24.0332632 12.1743158,24.0353684 12.5513918,23.8033216 L23.4987602,16.5040468 C23.779462,16.3169591 23.9532632,15.9827368 23.9532632,15.6485614 L23.9532632,8.35036257 C23.9532632,8.01623392 23.779462,7.6820117 23.4987135,7.49492398 Z M13.005848,2.97688889 L21.0660117,8.35036257 L17.4703626,10.7563977 L13.005848,7.77557895 L13.005848,2.97688889 Z M10.9473684,2.97688889 L10.9473684,7.77557895 L6.4828538,10.7563977 L2.88720468,8.35036257 L10.9473684,2.97688889 Z M2.05847953,10.2751813 L4.63826901,11.9994854 L2.05847953,13.7237895 L2.05847953,10.2751813 Z M10.9473684,21.0220819 L2.88720468,15.6486082 L6.4828538,13.2425731 L10.9473684,16.2233918 L10.9473684,21.0220819 Z M11.9766082,14.4322339 L8.34081871,11.9994854 L11.9766082,9.56673684 L15.6123977,11.9994854 L11.9766082,14.4322339 Z M13.005848,21.0220819 L13.005848,16.2233918 L17.4703626,13.2425731 L21.0660117,15.6486082 L13.005848,21.0220819 Z M21.8947368,13.7237895 L19.3149474,11.9994854 L21.8947368,10.2751813 L21.8947368,13.7237895 Z" id="path-1"></path>
    </defs>
    <g id="Brands/codepen" stroke="none" stroke-width="1" fill="none" fill-rule="evenodd">
        <mask id="mask-2" fill="white">
            <use xlink:href="#path-1"></use>
        </mask>
        <use id="Mask" fill="#FFFFFF" xlink:href="#path-1"></use>
    </g>
</svg>