<?xml version="1.0" encoding="UTF-8"?>
<svg width="22px" height="41px" viewBox="0 0 22 41" version="1.1" xmlns="http://www.w3.org/2000/svg" xmlns:xlink="http://www.w3.org/1999/xlink">
    <title>abstract brew</title>
    <g id="inhaltsverseichnis-page" stroke="none" stroke-width="1" fill="none" fill-rule="evenodd">
        <g id="test" transform="translate(-183.000000, -148.000000)" fill="#FFFFFF" fill-rule="nonzero">
            <path d="M194.254712,148.499964 L204.690973,158.936225 L201.117451,165.564964 L204.690973,169.139187 L194.254712,188.499964 L183.818451,169.139187 L187.391451,165.564964 L183.818451,158.936225 L194.254712,148.499964 Z M187.741451,166.214964 L184.690622,169.266956 L189.328451,177.870964 L194.024451,177.870964 L187.741451,166.214964 Z M200.767451,166.214964 L194.484451,177.870964 L199.180451,177.870964 L203.818727,169.266956 L200.767451,166.214964 Z M194.254674,159.702904 L188.263451,165.692964 L194.254706,176.806546 L200.245451,165.692964 L194.254674,159.702904 Z M194.254706,149.49991 L184.690653,159.063963 L187.913451,165.042964 L194.254712,158.702925 L200.595451,165.042964 L203.818758,159.063963 L194.254706,149.49991 Z" id="abstract-brew"></path>
        </g>
    </g>
</svg>