<svg width="24" height="24" viewBox="0 0 24 24" fill="none" xmlns="http://www.w3.org/2000/svg">
<path d="M8.02742 19.1325C8.02742 19.2292 7.91613 19.3067 7.77581 19.3067C7.61613 19.3212 7.50484 19.2438 7.50484 19.1325C7.50484 19.0357 7.61613 18.9583 7.75645 18.9583C7.90161 18.9438 8.02742 19.0212 8.02742 19.1325ZM6.52258 18.9147C6.48871 19.0115 6.58548 19.1228 6.73065 19.1518C6.85645 19.2002 7.00161 19.1518 7.03065 19.055C7.05968 18.9583 6.96774 18.847 6.82258 18.8034C6.69677 18.7696 6.55645 18.8179 6.52258 18.9147ZM8.66129 18.8325C8.52097 18.8663 8.42419 18.9583 8.43871 19.0696C8.45323 19.1663 8.57903 19.2292 8.72419 19.1954C8.86452 19.1615 8.96129 19.0696 8.94677 18.9728C8.93226 18.8808 8.80161 18.8179 8.66129 18.8325ZM11.8452 0.290527C5.13387 0.290527 0 5.38569 0 12.097C0 17.4631 3.37742 22.055 8.20161 23.6712C8.82097 23.7825 9.03871 23.4002 9.03871 23.0857C9.03871 22.7857 9.02419 21.1308 9.02419 20.1147C9.02419 20.1147 5.6371 20.8405 4.92581 18.6728C4.92581 18.6728 4.37419 17.2647 3.58065 16.9018C3.58065 16.9018 2.47258 16.1421 3.65806 16.1567C3.65806 16.1567 4.8629 16.2534 5.52581 17.405C6.58548 19.2728 8.36129 18.7357 9.05323 18.4163C9.16452 17.6421 9.47903 17.105 9.82742 16.7857C7.12258 16.4857 4.39355 16.0938 4.39355 11.4389C4.39355 10.1083 4.76129 9.44053 5.53548 8.58891C5.40968 8.2744 4.99839 6.97762 5.66129 5.30343C6.67258 4.98891 9 6.60988 9 6.60988C9.96774 6.33891 11.0081 6.19859 12.0387 6.19859C13.0694 6.19859 14.1097 6.33891 15.0774 6.60988C15.0774 6.60988 17.4048 4.98408 18.4161 5.30343C19.079 6.98246 18.6677 8.2744 18.5419 8.58891C19.3161 9.44537 19.7903 10.1131 19.7903 11.4389C19.7903 16.1083 16.9403 16.4808 14.2355 16.7857C14.6806 17.1679 15.0581 17.8938 15.0581 19.0308C15.0581 20.6615 15.0435 22.6792 15.0435 23.076C15.0435 23.3905 15.2661 23.7728 15.8806 23.6615C20.7194 22.055 24 17.4631 24 12.097C24 5.38569 18.5565 0.290527 11.8452 0.290527ZM4.70323 16.9792C4.64032 17.0276 4.65484 17.1389 4.7371 17.2309C4.81452 17.3083 4.92581 17.3421 4.98871 17.2792C5.05161 17.2308 5.0371 17.1196 4.95484 17.0276C4.87742 16.9502 4.76613 16.9163 4.70323 16.9792ZM4.18064 16.5873C4.14677 16.6502 4.19516 16.7276 4.29194 16.776C4.36935 16.8244 4.46613 16.8099 4.5 16.7421C4.53387 16.6792 4.48548 16.6018 4.38871 16.5534C4.29194 16.5244 4.21452 16.5389 4.18064 16.5873ZM5.74839 18.3099C5.67097 18.3728 5.7 18.5179 5.81129 18.6099C5.92258 18.7212 6.0629 18.7357 6.12581 18.6583C6.18871 18.5954 6.15968 18.4502 6.0629 18.3583C5.95645 18.247 5.81129 18.2325 5.74839 18.3099ZM5.19677 17.5986C5.11935 17.647 5.11935 17.7728 5.19677 17.8841C5.27419 17.9954 5.40484 18.0438 5.46774 17.9954C5.54516 17.9325 5.54516 17.8067 5.46774 17.6954C5.4 17.5841 5.27419 17.5357 5.19677 17.5986Z" fill="#00EBA5"/>
</svg>
