<svg width="24" height="24" viewBox="0 0 24 24" fill="none" xmlns="http://www.w3.org/2000/svg">
<path d="M5.36125 23.9734H0.395546V7.98588H5.36125V23.9734ZM2.87572 5.80503C1.2882 5.80503 0 4.49011 0 2.90258C0 1.31505 1.2882 0.0268555 2.87572 0.0268555C4.46325 0.0268555 5.75145 1.31505 5.75145 2.90258C5.75145 4.49011 4.46325 5.80503 2.87572 5.80503ZM23.9465 23.9734H18.9915V16.1908C18.9915 14.336 18.9541 11.9574 16.4098 11.9574C13.8281 11.9574 13.4325 13.9725 13.4325 16.0571V23.9734H8.47216V7.98588H13.2347V10.1667H13.3042C13.967 8.9106 15.5866 7.58498 18.0027 7.58498C23.0272 7.58498 23.9519 10.8937 23.9519 15.1912V23.9734H23.9465Z" fill="#00EBA5"/>
</svg>
