<?xml version="1.0" encoding="UTF-8"?>
<svg width="24px" height="24px" viewBox="0 0 24 24" version="1.1" xmlns="http://www.w3.org/2000/svg" xmlns:xlink="http://www.w3.org/1999/xlink">
    <title>Brands/linkedin-in</title>
    <defs>
        <path d="M5.36124722,23.9732739 L0.395545657,23.9732739 L0.395545657,7.9857461 L5.36124722,7.9857461 L5.36124722,23.9732739 Z M2.87572383,5.80489978 C1.28819599,5.80489978 0,4.48997773 0,2.90244989 C0,1.31492205 1.28819599,0.0267260579 2.87572383,0.0267260579 C4.46325167,0.0267260579 5.75144766,1.31492205 5.75144766,2.90244989 C5.75144766,4.48997773 4.46325167,5.80489978 2.87572383,5.80489978 Z M23.9465479,23.9732739 L18.9915367,23.9732739 L18.9915367,16.1906459 C18.9915367,14.3358575 18.9541203,11.9572383 16.4097996,11.9572383 C13.8280624,11.9572383 13.4325167,13.9723831 13.4325167,16.0570156 L13.4325167,23.9732739 L8.47216036,23.9732739 L8.47216036,7.9857461 L13.2347439,7.9857461 L13.2347439,10.1665924 L13.3042316,10.1665924 C13.9670379,8.91046771 15.586637,7.58485523 18.0026726,7.58485523 C23.0271715,7.58485523 23.9518931,10.8935412 23.9518931,15.1910913 L23.9518931,23.9732739 L23.9465479,23.9732739 Z" id="path-1"></path>
    </defs>
    <g id="Brands/linkedin-in" stroke="none" stroke-width="1" fill="none" fill-rule="evenodd">
        <mask id="mask-2" fill="white">
            <use xlink:href="#path-1"></use>
        </mask>
        <use id="Mask" fill="#FFFFFF" xlink:href="#path-1"></use>
    </g>
</svg>