<svg width="500" height="500" viewBox="0 0 500 500" fill="none" xmlns="http://www.w3.org/2000/svg">
<path d="M400.163 51.438L393.693 44.968C392.667 43.942 391.003 43.942 389.977 44.968L350.168 84.777L358.496 93.105L400.163 51.438Z" fill="#7D8EA0"/>
<path d="M428.425 79.7004L394.564 45.8395L356.399 84.0045L390.26 117.865L428.425 79.7004Z" fill="#6DB6C6"/>
<path d="M384.753 119.362C383.8 120.315 383.318 121.554 383.307 122.805L350.972 90.47C350.1 89.598 349.859 88.255 350.41 87.153C350.639 86.717 350.949 86.292 351.317 85.925C351.696 85.546 352.109 85.248 352.557 85.007C353.659 84.456 355.002 84.697 355.874 85.569L388.209 117.904C386.957 117.915 385.717 118.397 384.753 119.362Z" fill="#FEC130"/>
<path d="M355.875 85.571C355.002 84.698 353.657 84.447 352.56 85.014C352.114 85.244 351.694 85.548 351.316 85.926C350.943 86.299 350.642 86.716 350.413 87.161C349.849 88.257 350.1 89.601 350.972 90.473L384.316 123.817L383.272 124.861L350.18 91.767C349.204 90.791 348.722 89.506 348.722 88.22C348.734 86.969 349.216 85.729 350.168 84.777C351.132 83.813 352.372 83.331 353.623 83.319C353.646 83.319 353.646 83.319 353.669 83.319C354.943 83.33 356.206 83.813 357.17 84.777L390.262 117.869L389.218 118.914L355.875 85.571Z" fill="#8BD2E7"/>
<path d="M381.364 116.821L353.337 88.794C353.099 88.556 353.099 88.171 353.337 87.933C353.575 87.695 353.96 87.695 354.198 87.933L382.225 115.96C382.463 116.198 382.463 116.583 382.225 116.821C381.987 117.059 381.601 117.059 381.364 116.821Z" fill="#F69C00"/>
<path d="M351.906 102.087L351.714 99.6L349.227 99.408L357.019 91.616L359.698 94.295L351.906 102.087Z" fill="#C6209A"/>
<path d="M407.669 85.5345L388.73 66.5955L383.947 71.3783L402.886 90.3173L407.669 85.5345Z" fill="white"/>
<path d="M117.597 182.49C109.355 196.118 107.119 214.176 115.124 227.946C120.103 236.51 128.598 242.946 132.04 252.235C137.167 266.069 129.627 280.975 123.706 294.489C110.488 324.658 105.44 361.833 123.927 389.093C133.523 403.244 148.642 413.188 165.008 418.133C202.216 429.376 255.839 383.469 264.747 377.289C276.775 368.946 297.692 364.227 312.044 361.346C326.781 358.388 342.213 358.815 357.01 361.46C410.474 371.017 436.099 339.153 440.662 330.603C445.728 321.109 444.542 309.119 439.481 299.622C434.419 290.125 425.941 282.852 416.788 277.192C410.029 273.012 402.596 269.406 397.716 263.134C389.922 253.119 390.622 239.221 389.256 226.605C386.878 204.647 377.243 184.086 365.651 165.288C360.288 156.591 354.391 148.071 346.69 141.356C335.049 131.205 319.955 125.791 304.781 122.91C277.26 117.684 248.941 120.255 221.848 126.652C198.156 132.246 170.418 139.199 149.809 152.593C137.562 160.551 125.26 169.82 117.597 182.49Z" fill="#FFF2A9"/>
<path d="M348.887 398.385H346.098C345.821 397.187 345.349 396.068 344.721 395.054L346.691 393.084C347.125 392.651 347.125 391.948 346.691 391.514L344.645 389.466C344.211 389.032 343.508 389.032 343.074 389.466L341.101 391.439C340.087 390.806 338.968 390.335 337.77 390.058V387.272C337.77 386.659 337.273 386.162 336.66 386.162H333.768C333.155 386.162 332.658 386.659 332.658 387.272V390.058C331.46 390.335 330.341 390.807 329.327 391.439L327.354 389.466C326.92 389.032 326.217 389.032 325.783 389.466L323.737 391.514C323.304 391.948 323.304 392.65 323.737 393.084L325.707 395.054C325.078 396.068 324.607 397.187 324.33 398.385H321.541C320.928 398.385 320.431 398.882 320.431 399.495V402.39C320.431 403.003 320.928 403.5 321.541 403.5H324.327C324.604 404.698 325.079 405.82 325.708 406.831L323.738 408.801C323.305 409.235 323.304 409.937 323.738 410.371L325.784 412.419C326.218 412.853 326.921 412.853 327.355 412.419L329.328 410.446C330.342 411.079 331.461 411.55 332.659 411.827V414.616C332.659 415.229 333.156 415.726 333.769 415.726H336.661C337.274 415.726 337.771 415.229 337.771 414.616V411.827C338.969 411.55 340.088 411.078 341.102 410.446L343.075 412.419C343.509 412.853 344.212 412.853 344.646 412.419L346.692 410.371C347.125 409.937 347.125 409.235 346.692 408.801L344.722 406.831C345.351 405.821 345.826 404.698 346.103 403.5H348.889C349.502 403.5 349.999 403.003 349.999 402.39V399.495C349.998 398.882 349.501 398.385 348.887 398.385ZM340.791 402.902C340.72 403.108 340.638 403.306 340.544 403.501C339.964 404.71 338.98 405.694 337.771 406.274C337.577 406.368 337.378 406.45 337.176 406.521C336.562 406.738 335.904 406.854 335.215 406.854C334.526 406.854 333.868 406.738 333.254 406.521C333.052 406.45 332.854 406.368 332.659 406.274C331.45 405.694 330.466 404.71 329.886 403.501C329.792 403.307 329.71 403.108 329.639 402.902C329.422 402.288 329.306 401.63 329.306 400.945C329.306 400.256 329.422 399.598 329.639 398.984C329.71 398.778 329.793 398.58 329.89 398.385C330.47 397.176 331.451 396.196 332.659 395.615C332.854 395.521 333.052 395.439 333.258 395.368C333.872 395.151 334.531 395.035 335.215 395.035C335.9 395.035 336.559 395.151 337.172 395.368C337.378 395.439 337.576 395.522 337.771 395.615C338.98 396.195 339.96 397.176 340.541 398.385C340.638 398.58 340.721 398.778 340.792 398.984C341.009 399.598 341.125 400.256 341.125 400.945C341.124 401.63 341.008 402.289 340.791 402.902Z" fill="#FEC130"/>
<path d="M425.225 310.845C443.991 310.845 459.204 295.632 459.204 276.866C459.204 258.1 443.991 242.887 425.225 242.887C406.459 242.887 391.246 258.1 391.246 276.866C391.246 295.632 406.459 310.845 425.225 310.845Z" fill="#F69C00"/>
<path d="M425.225 306.367C441.518 306.367 454.726 293.159 454.726 276.866C454.726 260.573 441.518 247.365 425.225 247.365C408.932 247.365 395.724 260.573 395.724 276.866C395.724 293.159 408.932 306.367 425.225 306.367Z" fill="#FEC130"/>
<path d="M428.675 289.424C431.712 286.387 431.72 282.429 428.933 276.826C426.921 272.702 426.187 270.755 427.562 269.38C428.682 268.26 430.769 268.429 433.097 270.756C434.209 271.868 435.038 272.974 435.658 273.976C436.566 275.441 438.396 276.033 439.795 275.288C441.206 274.536 441.647 272.704 440.722 271.229C439.938 269.979 438.892 268.622 437.526 267.21L441.752 262.984C442.482 262.254 442.482 261.07 441.752 260.34C441.022 259.61 439.838 259.61 439.108 260.34L434.709 264.739C429.833 261.198 424.857 261.228 421.717 264.367C418.583 267.501 419.174 272.057 421.876 277.254C423.804 281.036 424.165 282.933 422.822 284.275C421.415 285.682 419.183 285.304 416.715 282.837C415.387 281.509 414.307 279.979 413.484 278.516C412.609 276.961 410.658 276.362 409.234 277.178L409.158 277.221C407.816 277.991 407.423 279.745 408.276 281.196C409.275 282.896 410.706 284.824 412.399 286.518C412.49 286.609 412.581 286.686 412.672 286.775L408.698 290.749C407.968 291.479 407.968 292.663 408.698 293.393C409.428 294.123 410.612 294.123 411.342 293.393L415.55 289.185C420.856 292.927 425.65 292.448 428.675 289.424Z" fill="white"/>
<path d="M61.73 113.036L86.196 112.011L125.149 84.529L94.636 114.142L116.009 128.928L132.005 77.536L61.73 113.036Z" fill="#8BD2E7"/>
<path d="M86.1958 112.011L92.9468 132.167L94.6358 114.142L125.149 84.529L86.1958 112.011Z" fill="#6DB6C6"/>
<path d="M92.9468 132.167L102.283 119.432L94.6358 114.142L92.9468 132.167Z" fill="#7D8EA0"/>
<path d="M85.8477 138.598C85.5987 138.598 85.3487 138.506 85.1557 138.32C84.7577 137.938 84.7437 137.304 85.1267 136.906L85.4807 136.54C85.8667 136.145 86.5007 136.138 86.8947 136.522C87.2907 136.908 87.2977 137.541 86.9127 137.936L86.5697 138.29C86.3727 138.495 86.1097 138.598 85.8477 138.598Z" fill="#D98490"/>
<path d="M178.406 308.517C177.858 308.517 177.411 308.075 177.406 307.526C177.401 306.974 177.845 306.522 178.397 306.517C178.726 306.514 179.057 306.509 179.39 306.502C179.397 306.502 179.404 306.502 179.411 306.502C179.954 306.502 180.399 306.936 180.411 307.481C180.422 308.034 179.983 308.49 179.432 308.502C179.091 308.509 178.752 308.514 178.416 308.517C178.412 308.517 178.409 308.517 178.406 308.517ZM174.408 308.466C174.395 308.466 174.383 308.466 174.37 308.465L173.357 308.423C172.805 308.397 172.379 307.929 172.405 307.377C172.431 306.825 172.908 306.398 173.451 306.425L174.445 306.467C174.997 306.488 175.427 306.951 175.407 307.504C175.386 308.043 174.943 308.466 174.408 308.466ZM183.405 308.343C182.88 308.343 182.439 307.933 182.408 307.402C182.375 306.851 182.796 306.378 183.347 306.345L184.342 306.282C184.885 306.259 185.369 306.662 185.406 307.214C185.443 307.765 185.026 308.241 184.475 308.278L183.465 308.341C183.445 308.342 183.425 308.343 183.405 308.343ZM169.422 308.128C169.388 308.128 169.354 308.126 169.319 308.123C168.979 308.088 168.642 308.052 168.308 308.013C167.76 307.949 167.366 307.453 167.429 306.906C167.493 306.357 167.991 305.962 168.537 306.027C168.863 306.064 169.191 306.1 169.522 306.133C170.071 306.19 170.471 306.68 170.415 307.23C170.364 307.744 169.929 308.128 169.422 308.128ZM164.479 307.44C164.419 307.44 164.359 307.435 164.298 307.423C163.962 307.362 163.629 307.3 163.297 307.235C162.755 307.127 162.403 306.601 162.51 306.059C162.617 305.518 163.141 305.167 163.685 305.272C164.006 305.335 164.33 305.397 164.657 305.457C165.201 305.556 165.56 306.077 165.461 306.62C165.374 307.103 164.953 307.44 164.479 307.44ZM159.612 306.343C159.525 306.343 159.436 306.331 159.347 306.308C159.016 306.217 158.689 306.123 158.364 306.028C157.834 305.873 157.531 305.317 157.687 304.787C157.843 304.258 158.399 303.95 158.929 304.11C159.242 304.202 159.558 304.292 159.876 304.378C160.409 304.525 160.722 305.074 160.576 305.607C160.455 306.051 160.052 306.343 159.612 306.343ZM154.876 304.786C154.755 304.786 154.632 304.764 154.513 304.718C154.193 304.594 153.876 304.466 153.563 304.336C153.052 304.125 152.81 303.54 153.02 303.03C153.231 302.52 153.816 302.276 154.326 302.488C154.627 302.612 154.931 302.734 155.238 302.854C155.753 303.054 156.008 303.634 155.807 304.149C155.654 304.544 155.276 304.786 154.876 304.786ZM150.339 302.723C150.182 302.723 150.023 302.686 149.875 302.608C149.57 302.448 149.269 302.285 148.971 302.119C148.489 301.85 148.316 301.241 148.585 300.759C148.853 300.276 149.462 300.104 149.945 300.373C150.228 300.531 150.515 300.686 150.805 300.839C151.294 301.096 151.482 301.7 151.225 302.189C151.046 302.528 150.699 302.723 150.339 302.723ZM146.079 300.139C145.883 300.139 145.685 300.081 145.511 299.961C145.228 299.766 144.948 299.565 144.672 299.363C144.227 299.036 144.13 298.411 144.457 297.965C144.785 297.52 145.409 297.422 145.855 297.749C146.117 297.941 146.381 298.13 146.649 298.315C147.103 298.629 147.217 299.251 146.902 299.706C146.708 299.988 146.396 300.139 146.079 300.139ZM142.166 297.053C141.929 297.053 141.69 296.969 141.5 296.798C141.244 296.569 140.992 296.338 140.742 296.105C140.339 295.727 140.319 295.094 140.697 294.691C141.075 294.29 141.709 294.269 142.111 294.646C142.349 294.87 142.59 295.089 142.834 295.308C143.246 295.676 143.281 296.308 142.913 296.72C142.714 296.94 142.441 297.053 142.166 297.053ZM138.647 293.518C138.372 293.518 138.098 293.405 137.9 293.184C137.673 292.929 137.448 292.67 137.226 292.409C136.868 291.989 136.919 291.357 137.34 291C137.76 290.643 138.392 290.692 138.75 291.114C138.962 291.362 139.176 291.609 139.393 291.852C139.761 292.264 139.724 292.897 139.312 293.264C139.122 293.434 138.884 293.518 138.647 293.518ZM135.529 289.612C135.217 289.612 134.911 289.467 134.715 289.195C134.517 288.919 134.32 288.64 134.127 288.36C133.813 287.906 133.926 287.283 134.38 286.969C134.834 286.654 135.457 286.768 135.772 287.223C135.959 287.494 136.149 287.762 136.34 288.029C136.662 288.477 136.559 289.102 136.111 289.425C135.935 289.552 135.731 289.612 135.529 289.612ZM132.798 285.429C132.457 285.429 132.125 285.255 131.938 284.941C131.764 284.649 131.593 284.355 131.423 284.059C131.149 283.58 131.315 282.968 131.795 282.694C132.275 282.419 132.885 282.586 133.16 283.065C133.323 283.351 133.489 283.635 133.657 283.917C133.939 284.392 133.783 285.006 133.309 285.288C133.148 285.384 132.972 285.429 132.798 285.429ZM130.407 281.038C130.039 281.038 129.686 280.835 129.511 280.484C129.361 280.182 129.211 279.877 129.063 279.573C128.822 279.076 129.029 278.478 129.526 278.237C130.023 277.997 130.621 278.204 130.862 278.7C131.007 278.999 131.154 279.296 131.301 279.592C131.547 280.086 131.346 280.687 130.852 280.934C130.709 281.005 130.557 281.038 130.407 281.038ZM128.303 276.501C127.916 276.501 127.548 276.275 127.385 275.897C127.251 275.587 127.119 275.275 126.988 274.962C126.775 274.453 127.014 273.867 127.524 273.653C128.032 273.436 128.619 273.679 128.833 274.188C128.962 274.495 129.091 274.799 129.222 275.103C129.441 275.611 129.207 276.199 128.7 276.417C128.569 276.475 128.435 276.501 128.303 276.501ZM126.427 271.862C126.023 271.862 125.643 271.616 125.492 271.215L125.137 270.268C124.945 269.75 125.209 269.175 125.726 268.983C126.244 268.788 126.819 269.055 127.012 269.573L127.363 270.509C127.559 271.025 127.299 271.602 126.782 271.798C126.664 271.842 126.544 271.862 126.427 271.862ZM124.73 267.151C124.314 267.151 123.927 266.89 123.784 266.476L123.458 265.519C123.282 264.997 123.563 264.429 124.086 264.252C124.609 264.071 125.177 264.356 125.353 264.88L125.675 265.825C125.854 266.347 125.576 266.917 125.054 267.096C124.947 267.134 124.838 267.151 124.73 267.151ZM123.161 262.397C122.738 262.397 122.345 262.126 122.209 261.701L121.904 260.739C121.738 260.212 122.031 259.65 122.558 259.485C123.085 259.32 123.646 259.612 123.812 260.139L124.114 261.093C124.282 261.619 123.991 262.182 123.465 262.35C123.364 262.382 123.262 262.397 123.161 262.397ZM121.678 257.615C121.249 257.615 120.852 257.337 120.721 256.904L120.43 255.94C120.271 255.412 120.571 254.853 121.099 254.694C121.628 254.538 122.185 254.836 122.345 255.364L122.636 256.326C122.796 256.854 122.497 257.412 121.969 257.572C121.871 257.602 121.774 257.615 121.678 257.615ZM120.241 252.817C119.81 252.817 119.412 252.537 119.283 252.102L118.997 251.139C118.839 250.61 119.141 250.053 119.67 249.896C120.196 249.74 120.756 250.039 120.914 250.569L121.2 251.532C121.357 252.061 121.056 252.618 120.527 252.776C120.431 252.804 120.335 252.817 120.241 252.817ZM118.811 248.019C118.38 248.019 117.982 247.739 117.853 247.304L117.565 246.344C117.406 245.815 117.705 245.257 118.234 245.098C118.761 244.939 119.321 245.238 119.48 245.767L119.769 246.734C119.926 247.263 119.625 247.82 119.096 247.978C119.002 248.005 118.906 248.019 118.811 248.019ZM117.357 243.227C116.93 243.227 116.535 242.951 116.402 242.522L116.105 241.564C115.94 241.037 116.235 240.476 116.762 240.312C117.289 240.148 117.85 240.442 118.014 240.969L118.312 241.931C118.476 242.458 118.18 243.018 117.652 243.181C117.555 243.212 117.455 243.227 117.357 243.227ZM115.842 238.443C115.421 238.443 115.029 238.175 114.891 237.753L114.577 236.797C114.404 236.273 114.689 235.707 115.213 235.534C115.736 235.363 116.302 235.646 116.476 236.17L116.792 237.131C116.963 237.656 116.677 238.22 116.152 238.392C116.049 238.427 115.944 238.443 115.842 238.443ZM114.234 233.692C113.821 233.692 113.435 233.434 113.291 233.023L112.956 232.079C112.77 231.559 113.041 230.987 113.561 230.801C114.081 230.618 114.654 230.886 114.839 231.407L115.177 232.361C115.36 232.882 115.086 233.453 114.565 233.636C114.456 233.673 114.344 233.692 114.234 233.692ZM112.505 228.989C112.103 228.989 111.724 228.744 111.571 228.347L111.21 227.417C111.008 226.903 111.261 226.322 111.775 226.121C112.29 225.918 112.87 226.172 113.071 226.686L113.438 227.631C113.636 228.147 113.378 228.725 112.863 228.923C112.745 228.968 112.624 228.989 112.505 228.989ZM110.624 224.351C110.236 224.351 109.867 224.123 109.704 223.744L109.308 222.829C109.086 222.323 109.317 221.733 109.823 221.512C110.331 221.291 110.919 221.521 111.14 222.027L111.542 222.957C111.759 223.465 111.524 224.053 111.016 224.27C110.889 224.324 110.756 224.351 110.624 224.351ZM108.56 219.792C108.188 219.792 107.831 219.583 107.659 219.226L107.223 218.331C106.979 217.836 107.182 217.236 107.678 216.992C108.174 216.746 108.773 216.952 109.017 217.447L109.46 218.358C109.7 218.856 109.49 219.453 108.993 219.693C108.853 219.76 108.705 219.792 108.56 219.792ZM106.282 215.338C105.928 215.338 105.584 215.149 105.403 214.817C105.244 214.526 105.085 214.236 104.923 213.947C104.653 213.465 104.825 212.856 105.307 212.586C105.79 212.316 106.399 212.488 106.668 212.97C106.834 213.266 106.997 213.563 107.159 213.86C107.424 214.345 107.244 214.952 106.76 215.216C106.608 215.299 106.444 215.338 106.282 215.338ZM65.4658 214.577C65.1398 214.577 64.8248 214.563 64.5168 214.535C63.9668 214.486 63.5608 214 63.6098 213.45C63.6588 212.9 64.1368 212.499 64.6948 212.543C64.9438 212.565 65.2008 212.577 65.4648 212.577L65.5968 212.576C65.6008 212.576 65.6038 212.576 65.6078 212.576C66.1548 212.576 66.6018 213.017 66.6068 213.566C66.6118 214.118 66.1688 214.571 65.6168 214.576L65.4658 214.577ZM69.5368 213.897C69.1108 213.897 68.7158 213.622 68.5828 213.194C68.4188 212.667 68.7128 212.106 69.2398 211.942C69.5358 211.85 69.8368 211.748 70.1448 211.635C70.6648 211.446 71.2378 211.711 71.4278 212.23C71.6178 212.748 71.3518 213.323 70.8328 213.513C70.4928 213.638 70.1598 213.75 69.8338 213.851C69.7348 213.882 69.6348 213.897 69.5368 213.897ZM60.8938 213.201C60.6898 213.201 60.4838 213.139 60.3058 213.009C59.9988 212.785 59.7038 212.535 59.4298 212.266C59.0358 211.879 59.0298 211.246 59.4168 210.851C59.8038 210.456 60.4368 210.451 60.8318 210.838C61.0368 211.039 61.2558 211.226 61.4848 211.392C61.9308 211.717 62.0288 212.343 61.7038 212.789C61.5068 213.059 61.2028 213.201 60.8938 213.201ZM74.1178 211.901C73.7708 211.901 73.4338 211.72 73.2488 211.398C72.9748 210.919 73.1408 210.308 73.6198 210.033C73.8968 209.874 74.1618 209.71 74.4138 209.541C74.8718 209.233 75.4938 209.355 75.8008 209.815C76.1088 210.273 75.9858 210.895 75.5268 211.202C75.2368 211.396 74.9328 211.585 74.6138 211.768C74.4568 211.859 74.2868 211.901 74.1178 211.901ZM103.764 211.012C103.431 211.012 103.104 210.845 102.915 210.542C102.739 210.26 102.562 209.979 102.383 209.7C102.086 209.235 102.222 208.616 102.687 208.319C103.154 208.023 103.772 208.159 104.068 208.623C104.251 208.909 104.431 209.195 104.61 209.483C104.903 209.952 104.76 210.568 104.292 210.861C104.128 210.963 103.945 211.012 103.764 211.012ZM58.0878 209.159C57.6698 209.159 57.2788 208.894 57.1388 208.475C57.0248 208.134 56.9258 207.783 56.8398 207.423C56.7128 206.886 57.0448 206.347 57.5818 206.219C58.1178 206.091 58.6578 206.423 58.7858 206.961C58.8568 207.263 58.9408 207.556 59.0358 207.841C59.2108 208.365 58.9278 208.931 58.4038 209.107C58.2998 209.142 58.1928 209.159 58.0878 209.159ZM77.8338 208.618C77.6358 208.618 77.4358 208.559 77.2618 208.438C76.8088 208.122 76.6988 207.499 77.0148 207.045C77.1878 206.797 77.3478 206.542 77.4928 206.281C77.7608 205.799 78.3678 205.624 78.8518 205.892C79.3348 206.16 79.5088 206.769 79.2408 207.251C79.0628 207.572 78.8678 207.885 78.6548 208.19C78.4598 208.469 78.1498 208.618 77.8338 208.618ZM100.983 206.844C100.671 206.844 100.363 206.698 100.168 206.425C99.9758 206.156 99.7808 205.888 99.5838 205.621C99.2558 205.176 99.3508 204.55 99.7958 204.223C100.241 203.895 100.866 203.99 101.194 204.435C101.397 204.71 101.597 204.986 101.795 205.264C102.116 205.713 102.012 206.338 101.562 206.659C101.387 206.783 101.184 206.844 100.983 206.844ZM57.4598 204.22C57.4468 204.22 57.4328 204.219 57.4198 204.219C56.8678 204.197 56.4388 203.732 56.4608 203.18C56.4748 202.83 56.4988 202.477 56.5328 202.122C56.5858 201.572 57.0768 201.173 57.6238 201.222C58.1738 201.275 58.5768 201.763 58.5238 202.313C58.4928 202.631 58.4718 202.947 58.4588 203.26C58.4368 203.798 57.9938 204.22 57.4598 204.22ZM79.6078 203.988C79.5588 203.988 79.5088 203.985 79.4588 203.977C78.9128 203.895 78.5358 203.386 78.6168 202.84C78.6628 202.534 78.6978 202.223 78.7248 201.906C78.7708 201.356 79.2508 200.944 79.8048 200.993C80.3548 201.039 80.7638 201.523 80.7178 202.073C80.6878 202.433 80.6468 202.787 80.5948 203.135C80.5208 203.632 80.0948 203.988 79.6078 203.988ZM97.9328 202.878C97.6448 202.878 97.3588 202.754 97.1618 202.515C96.9518 202.261 96.7398 202.008 96.5258 201.757C96.1678 201.337 96.2188 200.705 96.6398 200.347C97.0598 199.989 97.6918 200.041 98.0498 200.461C98.2698 200.72 98.4888 200.98 98.7048 201.242C99.0568 201.668 98.9968 202.298 98.5708 202.65C98.3828 202.803 98.1568 202.878 97.9328 202.878ZM58.3168 199.301C58.2188 199.301 58.1208 199.286 58.0228 199.257C57.4948 199.094 57.1988 198.535 57.3608 198.007C57.4638 197.673 57.5748 197.34 57.6938 197.007C57.8818 196.488 58.4538 196.219 58.9738 196.406C59.4938 196.594 59.7628 197.167 59.5758 197.686C59.4668 197.988 59.3658 198.29 59.2728 198.595C59.1408 199.024 58.7448 199.301 58.3168 199.301ZM94.6178 199.132C94.3528 199.132 94.0878 199.027 93.8918 198.819C93.6618 198.576 93.4328 198.337 93.2048 198.101C92.8208 197.705 92.8298 197.072 93.2268 196.687C93.6228 196.303 94.2558 196.312 94.6408 196.71C94.8738 196.95 95.1078 197.195 95.3438 197.444C95.7238 197.845 95.7058 198.478 95.3048 198.858C95.1118 199.041 94.8648 199.132 94.6178 199.132ZM79.6508 198.997C79.1418 198.997 78.7068 198.611 78.6568 198.095C78.6258 197.775 78.5888 197.452 78.5468 197.125C78.4768 196.578 78.8648 196.077 79.4128 196.007C79.9568 195.932 80.4608 196.324 80.5308 196.872C80.5748 197.218 80.6138 197.561 80.6478 197.899C80.7018 198.449 80.2998 198.938 79.7498 198.992C79.7158 198.995 79.6828 198.997 79.6508 198.997ZM91.0538 195.62C90.8138 195.62 90.5738 195.534 90.3818 195.36C90.1348 195.136 89.8898 194.916 89.6458 194.702C89.2308 194.338 89.1898 193.705 89.5538 193.291C89.9188 192.876 90.5518 192.835 90.9648 193.199C91.2178 193.421 91.4718 193.648 91.7268 193.88C92.1358 194.252 92.1658 194.884 91.7948 195.293C91.5968 195.51 91.3258 195.62 91.0538 195.62ZM60.3458 194.739C60.1698 194.739 59.9918 194.693 59.8298 194.595C59.3568 194.31 59.2048 193.695 59.4898 193.222C59.6718 192.92 59.8618 192.623 60.0598 192.331C60.3708 191.875 60.9918 191.755 61.4488 192.064C61.9058 192.373 62.0258 192.996 61.7158 193.453C61.5378 193.716 61.3668 193.984 61.2038 194.255C61.0158 194.566 60.6848 194.739 60.3458 194.739ZM78.8588 194.057C78.3938 194.057 77.9778 193.731 77.8798 193.259C77.8138 192.938 77.7448 192.614 77.6728 192.287C77.5548 191.748 77.8968 191.215 78.4368 191.097C78.9738 190.981 79.5088 191.321 79.6268 191.861C79.6998 192.195 79.7708 192.527 79.8388 192.856C79.9498 193.397 79.6018 193.926 79.0608 194.037C78.9928 194.051 78.9258 194.057 78.8588 194.057ZM87.1958 192.436C86.9888 192.436 86.7808 192.373 86.6028 192.24C86.3358 192.043 86.0708 191.852 85.8078 191.667C85.3558 191.35 85.2458 190.726 85.5628 190.274C85.8798 189.822 86.5038 189.711 86.9558 190.03C87.2328 190.224 87.5108 190.424 87.7908 190.631C88.2348 190.96 88.3288 191.586 88.0008 192.03C87.8048 192.296 87.5028 192.436 87.1958 192.436ZM63.4758 190.853C63.2078 190.853 62.9398 190.746 62.7428 190.533C62.3678 190.128 62.3908 189.496 62.7958 189.12C63.0558 188.878 63.3248 188.644 63.5998 188.419C64.0268 188.069 64.6568 188.132 65.0068 188.561C65.3568 188.989 65.2928 189.619 64.8648 189.968C64.6218 190.166 64.3858 190.373 64.1558 190.586C63.9628 190.765 63.7188 190.853 63.4758 190.853ZM82.9888 189.734C82.8278 189.734 82.6638 189.695 82.5118 189.613C82.2228 189.456 81.9368 189.307 81.6518 189.165C81.1578 188.919 80.9568 188.318 81.2038 187.824C81.4498 187.33 82.0498 187.129 82.5448 187.376C82.8488 187.528 83.1558 187.687 83.4658 187.855C83.9508 188.119 84.1308 188.726 83.8668 189.211C83.6868 189.545 83.3438 189.734 82.9888 189.734ZM77.7398 189.178C77.2888 189.178 76.8798 188.871 76.7688 188.413L76.5318 187.439C76.4908 187.273 76.4948 187.106 76.5348 186.952C76.4308 186.745 76.3988 186.502 76.4598 186.26C76.5958 185.725 77.1408 185.404 77.6748 185.535C78.0098 185.62 78.3488 185.714 78.6918 185.82C79.2188 185.983 79.5148 186.543 79.3528 187.071C79.2488 187.409 78.9808 187.652 78.6638 187.74L78.7138 187.944C78.8428 188.481 78.5138 189.021 77.9768 189.151C77.8958 189.169 77.8178 189.178 77.7398 189.178ZM67.6298 188.111C67.2438 188.111 66.8758 187.886 66.7118 187.509C66.4918 187.002 66.7248 186.413 67.2318 186.194C67.5588 186.052 67.8918 185.921 68.2318 185.802C68.7528 185.617 69.3238 185.892 69.5068 186.413C69.6898 186.934 69.4168 187.505 68.8958 187.688C68.6008 187.792 68.3108 187.905 68.0268 188.028C67.8978 188.084 67.7628 188.111 67.6298 188.111ZM72.4718 186.982C71.9438 186.982 71.5018 186.567 71.4738 186.034C71.4448 185.482 71.8698 185.012 72.4208 184.984C72.6928 184.97 72.9678 184.963 73.2458 184.962L73.4968 184.964C74.0488 184.975 74.4878 185.431 74.4778 185.983C74.4668 186.529 74.0218 186.964 73.4788 186.964C73.4718 186.964 73.4658 186.964 73.4588 186.964L73.2488 186.962C73.0058 186.963 72.7648 186.969 72.5258 186.981C72.5068 186.982 72.4898 186.982 72.4718 186.982ZM76.5598 184.313C76.1068 184.313 75.6968 184.004 75.5878 183.544L75.3578 182.56C75.2338 182.022 75.5688 181.485 76.1068 181.361C76.6408 181.236 77.1818 181.571 77.3058 182.11L77.5338 183.083C77.6608 183.62 77.3288 184.159 76.7918 184.287C76.7138 184.304 76.6358 184.313 76.5598 184.313ZM75.4858 179.423C75.0188 179.423 74.6008 179.094 74.5068 178.619C74.4408 178.288 74.3768 177.955 74.3138 177.621C74.2118 177.079 74.5688 176.556 75.1118 176.454C75.6558 176.353 76.1768 176.71 76.2788 177.252C76.3398 177.578 76.4028 177.903 76.4668 178.227C76.5748 178.769 76.2238 179.295 75.6828 179.404C75.6168 179.417 75.5508 179.423 75.4858 179.423ZM74.6518 174.489C74.1598 174.489 73.7308 174.126 73.6628 173.625C73.6168 173.288 73.5738 172.951 73.5328 172.612C73.4668 172.064 73.8578 171.566 74.4068 171.5C74.9548 171.438 75.4528 171.825 75.5188 172.374C75.5578 172.701 75.5998 173.028 75.6448 173.354C75.7198 173.901 75.3368 174.406 74.7898 174.48C74.7428 174.486 74.6968 174.489 74.6518 174.489ZM74.1808 169.505C73.6518 169.505 73.2098 169.09 73.1828 168.556C73.1648 168.214 73.1508 167.872 73.1408 167.529C73.1238 166.977 73.5578 166.516 74.1098 166.499C74.6578 166.461 75.1228 166.916 75.1398 167.468C75.1498 167.798 75.1638 168.126 75.1798 168.454C75.2078 169.005 74.7838 169.475 74.2318 169.503C74.2148 169.505 74.1978 169.505 74.1808 169.505ZM74.1878 164.497C74.1688 164.497 74.1498 164.496 74.1318 164.496C73.5798 164.465 73.1578 163.994 73.1888 163.442C73.2078 163.1 73.2308 162.757 73.2578 162.415C73.3018 161.864 73.7828 161.454 74.3338 161.496C74.8838 161.54 75.2948 162.021 75.2518 162.572C75.2258 162.899 75.2038 163.226 75.1858 163.552C75.1558 164.085 74.7148 164.497 74.1878 164.497ZM74.7648 159.527C74.7058 159.527 74.6458 159.522 74.5858 159.511C74.0428 159.412 73.6818 158.892 73.7798 158.349C73.8408 158.012 73.9058 157.675 73.9758 157.337C74.0878 156.797 74.6188 156.447 75.1578 156.562C75.6988 156.674 76.0458 157.204 75.9338 157.745C75.8678 158.065 75.8058 158.386 75.7468 158.706C75.6608 159.189 75.2388 159.527 74.7648 159.527ZM75.9748 154.676C75.8738 154.676 75.7708 154.66 75.6698 154.628C75.1438 154.46 74.8538 153.897 75.0218 153.371C75.1258 153.044 75.2368 152.718 75.3518 152.391C75.5358 151.871 76.1048 151.598 76.6278 151.78C77.1488 151.964 77.4218 152.535 77.2388 153.056C77.1298 153.364 77.0268 153.672 76.9278 153.98C76.7908 154.405 76.3978 154.676 75.9748 154.676ZM77.8198 150.029C77.6758 150.029 77.5298 149.998 77.3908 149.932C76.8928 149.695 76.6808 149.099 76.9178 148.6C77.0648 148.291 77.2158 147.983 77.3738 147.675C77.6238 147.183 78.2248 146.985 78.7188 147.237C79.2108 147.488 79.4068 148.09 79.1568 148.582C79.0088 148.874 78.8638 149.166 78.7248 149.459C78.5518 149.818 78.1928 150.029 77.8198 150.029ZM80.2518 145.66C80.0668 145.66 79.8808 145.609 79.7138 145.502C79.2488 145.204 79.1128 144.585 79.4108 144.12C79.5948 143.834 79.7828 143.548 79.9748 143.262C80.2838 142.804 80.9048 142.683 81.3628 142.991C81.8208 143.3 81.9418 143.921 81.6338 144.379C81.4488 144.652 81.2698 144.926 81.0948 145.199C80.9048 145.497 80.5818 145.66 80.2518 145.66ZM83.1868 141.61C82.9658 141.61 82.7428 141.537 82.5578 141.387C82.1288 141.039 82.0628 140.409 82.4108 139.98C82.6238 139.717 82.8428 139.454 83.0658 139.19C83.4228 138.767 84.0538 138.716 84.4748 139.073C84.8968 139.43 84.9488 140.061 84.5918 140.482C84.3788 140.735 84.1688 140.987 83.9648 141.239C83.7668 141.484 83.4778 141.61 83.1868 141.61Z" fill="#D98490"/>
<path d="M186.306 308.135C185.791 308.135 185.353 307.739 185.31 307.217C185.265 306.667 185.674 306.184 186.224 306.138L186.718 306.096C187.275 306.045 187.753 306.454 187.801 307.004C187.849 307.555 187.443 308.04 186.892 308.088L186.388 308.132C186.361 308.134 186.333 308.135 186.306 308.135Z" fill="#D98490"/>
<path d="M149.859 346.867H144.917C144.426 344.745 143.591 342.763 142.477 340.966L145.967 337.476C146.735 336.708 146.735 335.463 145.968 334.695L142.344 331.067C141.576 330.298 140.33 330.298 139.561 331.066L136.066 334.561C134.269 333.44 132.287 332.605 130.165 332.114V327.179C130.165 326.093 129.284 325.212 128.198 325.212H123.075C121.989 325.212 121.108 326.093 121.108 327.179V332.114C118.986 332.605 117.004 333.44 115.207 334.561L111.712 331.066C110.943 330.298 109.698 330.298 108.929 331.067L105.305 334.695C104.537 335.463 104.538 336.708 105.306 337.476L108.796 340.966C107.682 342.763 106.847 344.745 106.356 346.867H101.414C100.328 346.867 99.4473 347.748 99.4473 348.834V353.964C99.4473 355.05 100.328 355.931 101.414 355.931H106.349C106.84 358.053 107.682 360.042 108.796 361.832L105.306 365.322C104.538 366.09 104.538 367.335 105.305 368.103L108.929 371.731C109.697 372.5 110.943 372.5 111.712 371.732L115.207 368.237C117.004 369.357 118.986 370.193 121.108 370.684V375.626C121.108 376.712 121.989 377.593 123.075 377.593H128.198C129.284 377.593 130.165 376.712 130.165 375.626V370.684C132.287 370.193 134.269 369.358 136.066 368.237L139.561 371.732C140.329 372.5 141.575 372.5 142.344 371.731L145.968 368.103C146.736 367.335 146.735 366.09 145.967 365.322L142.477 361.832C143.591 360.042 144.433 358.053 144.924 355.931H149.859C150.945 355.931 151.826 355.05 151.826 353.964V348.834C151.826 347.748 150.946 346.867 149.859 346.867ZM135.516 354.87C135.39 355.235 135.244 355.586 135.078 355.931C134.05 358.073 132.307 359.816 130.165 360.844C129.82 361.01 129.469 361.156 129.111 361.282C128.024 361.666 126.857 361.872 125.637 361.872C124.417 361.872 123.25 361.666 122.163 361.282C121.805 361.156 121.454 361.01 121.109 360.844C118.967 359.816 117.224 358.072 116.196 355.931C116.03 355.586 115.884 355.235 115.758 354.87C115.374 353.783 115.168 352.616 115.168 351.402C115.168 350.182 115.374 349.015 115.758 347.928C115.884 347.563 116.03 347.212 116.202 346.867C117.23 344.725 118.967 342.988 121.108 341.961C121.453 341.795 121.804 341.649 122.169 341.523C123.256 341.138 124.423 340.933 125.637 340.933C126.85 340.933 128.017 341.139 129.105 341.523C129.47 341.649 129.821 341.795 130.166 341.961C132.308 342.989 134.045 344.726 135.072 346.867C135.244 347.212 135.39 347.563 135.516 347.928C135.9 349.015 136.106 350.182 136.106 351.402C136.106 352.616 135.9 353.783 135.516 354.87Z" fill="#7D8EA0"/>
<path d="M103.934 387.086H100.93C100.632 385.796 100.124 384.591 99.447 383.499L101.568 381.378C102.035 380.911 102.035 380.155 101.568 379.688L99.365 377.483C98.898 377.016 98.141 377.016 97.674 377.483L95.55 379.607C94.458 378.926 93.253 378.418 91.963 378.12V375.12C91.963 374.46 91.428 373.925 90.767 373.925H87.653C86.993 373.925 86.457 374.46 86.457 375.12V378.12C85.167 378.418 83.963 378.926 82.87 379.607L80.746 377.483C80.279 377.016 79.522 377.016 79.055 377.483L76.852 379.688C76.386 380.155 76.386 380.912 76.852 381.378L78.973 383.499C78.296 384.591 77.788 385.796 77.49 387.086H74.486C73.826 387.086 73.29 387.621 73.29 388.282V391.4C73.29 392.06 73.825 392.596 74.486 392.596H77.486C77.784 393.886 78.296 395.095 78.973 396.183L76.852 398.304C76.385 398.771 76.385 399.527 76.852 399.994L79.055 402.199C79.522 402.666 80.279 402.666 80.746 402.2L82.87 400.076C83.962 400.757 85.167 401.265 86.457 401.563V404.567C86.457 405.227 86.992 405.763 87.653 405.763H90.767C91.427 405.763 91.963 405.228 91.963 404.567V401.563C93.253 401.265 94.457 400.757 95.55 400.076L97.674 402.2C98.141 402.667 98.898 402.667 99.365 402.199L101.568 399.994C102.035 399.527 102.034 398.77 101.568 398.304L99.447 396.183C100.124 395.095 100.636 393.886 100.934 392.596H103.934C104.594 392.596 105.13 392.061 105.13 391.4V388.282C105.13 387.621 104.594 387.086 103.934 387.086ZM95.216 391.95C95.139 392.172 95.051 392.385 94.95 392.595C94.325 393.897 93.265 394.957 91.964 395.581C91.754 395.682 91.541 395.77 91.323 395.847C90.662 396.081 89.953 396.206 89.211 396.206C88.469 396.206 87.76 396.081 87.099 395.847C86.881 395.77 86.668 395.682 86.458 395.581C85.156 394.956 84.097 393.896 83.472 392.595C83.371 392.385 83.283 392.172 83.206 391.95C82.972 391.289 82.847 390.58 82.847 389.842C82.847 389.101 82.972 388.391 83.206 387.73C83.283 387.508 83.371 387.295 83.476 387.085C84.101 385.783 85.157 384.728 86.458 384.103C86.668 384.002 86.881 383.914 87.103 383.837C87.764 383.603 88.473 383.478 89.211 383.478C89.948 383.478 90.658 383.603 91.319 383.837C91.541 383.914 91.754 384.002 91.964 384.103C93.266 384.728 94.322 385.784 94.946 387.085C95.051 387.295 95.139 387.508 95.216 387.73C95.45 388.391 95.575 389.1 95.575 389.842C95.575 390.58 95.45 391.289 95.216 391.95Z" fill="#8BD2E7"/>
<path d="M175.802 385.859C175.953 385.082 177.004 384.383 177.004 383.563C177.004 382.743 175.953 382.044 175.802 381.267C175.644 380.475 176.342 379.424 176.04 378.69C175.73 377.949 174.492 377.697 174.046 377.034C173.6 376.372 173.844 375.126 173.276 374.565C172.715 373.996 171.477 374.241 170.807 373.795C170.145 373.349 169.9 372.111 169.152 371.801C168.418 371.499 167.367 372.197 166.575 372.039C165.805 371.888 165.099 370.837 164.279 370.837C163.466 370.837 162.76 371.888 161.99 372.039C161.191 372.197 160.14 371.499 159.406 371.801C158.665 372.111 158.42 373.349 157.758 373.795C157.089 374.241 155.851 373.997 155.282 374.565C154.721 375.126 154.958 376.372 154.512 377.034C154.073 377.696 152.828 377.948 152.518 378.69C152.216 379.424 152.914 380.475 152.756 381.267C152.605 382.044 151.554 382.743 151.554 383.563C151.554 384.384 152.605 385.082 152.756 385.859C152.914 386.651 152.216 387.702 152.518 388.436C152.827 389.177 154.073 389.429 154.512 390.091C154.958 390.753 154.713 391.999 155.282 392.56C155.851 393.129 157.089 392.884 157.751 393.33C158.413 393.776 158.665 395.014 159.407 395.324C160.141 395.626 161.192 394.928 161.991 395.087C162.761 395.238 163.467 396.289 164.28 396.289C165.101 396.289 165.806 395.238 166.576 395.087C167.368 394.929 168.419 395.627 169.153 395.324C169.901 395.014 170.146 393.776 170.808 393.33C171.477 392.884 172.716 393.128 173.277 392.56C173.846 391.999 173.601 390.753 174.047 390.091C174.493 389.429 175.731 389.177 176.041 388.436C176.342 387.702 175.644 386.651 175.802 385.859ZM164.278 390.164C160.636 390.164 157.678 387.206 157.678 383.563C157.678 379.921 160.636 376.963 164.278 376.963C167.927 376.963 170.879 379.921 170.879 383.563C170.879 387.205 167.928 390.164 164.278 390.164Z" fill="#2B6B87"/>
<path d="M316.317 79.289H313.857C313.613 78.233 313.197 77.246 312.642 76.352L314.379 74.615C314.761 74.233 314.761 73.613 314.379 73.231L312.575 71.425C312.193 71.042 311.572 71.042 311.19 71.425L309.45 73.165C308.556 72.607 307.569 72.191 306.513 71.947V69.49C306.513 68.949 306.075 68.511 305.534 68.511H302.984C302.443 68.511 302.005 68.949 302.005 69.49V71.946C300.949 72.19 299.962 72.606 299.068 73.164L297.328 71.424C296.945 71.042 296.325 71.042 295.943 71.424L294.139 73.23C293.757 73.612 293.757 74.232 294.139 74.614L295.876 76.351C295.321 77.245 294.906 78.232 294.661 79.288H292.201C291.66 79.288 291.222 79.726 291.222 80.267V82.82C291.222 83.361 291.66 83.799 292.201 83.799H294.658C294.902 84.855 295.321 85.845 295.876 86.736L294.139 88.473C293.757 88.855 293.757 89.475 294.139 89.857L295.943 91.663C296.325 92.046 296.946 92.046 297.328 91.663L299.068 89.923C299.963 90.481 300.949 90.897 302.005 91.141V93.601C302.005 94.142 302.443 94.58 302.984 94.58H305.534C306.075 94.58 306.513 94.142 306.513 93.601V91.141C307.569 90.897 308.556 90.481 309.45 89.923L311.19 91.663C311.573 92.046 312.193 92.045 312.575 91.663L314.379 89.857C314.761 89.475 314.761 88.855 314.379 88.473L312.642 86.736C313.197 85.845 313.616 84.855 313.86 83.799H316.317C316.858 83.799 317.296 83.361 317.296 82.82V80.267C317.296 79.728 316.857 79.289 316.317 79.289ZM309.177 83.273C309.114 83.454 309.042 83.629 308.959 83.801C308.447 84.867 307.579 85.735 306.513 86.247C306.341 86.33 306.167 86.402 305.988 86.465C305.447 86.656 304.866 86.759 304.259 86.759C303.652 86.759 303.071 86.657 302.53 86.465C302.352 86.402 302.177 86.33 302.005 86.247C300.939 85.735 300.071 84.867 299.559 83.801C299.477 83.629 299.404 83.454 299.341 83.273C299.15 82.732 299.047 82.151 299.047 81.547C299.047 80.94 299.149 80.359 299.341 79.818C299.404 79.637 299.476 79.462 299.562 79.29C300.074 78.224 300.938 77.359 302.004 76.848C302.176 76.766 302.35 76.693 302.532 76.63C303.073 76.438 303.654 76.336 304.258 76.336C304.862 76.336 305.443 76.438 305.984 76.63C306.165 76.693 306.34 76.765 306.512 76.848C307.578 77.359 308.443 78.224 308.954 79.29C309.04 79.462 309.112 79.637 309.175 79.818C309.366 80.359 309.469 80.94 309.469 81.547C309.47 82.151 309.368 82.732 309.177 83.273Z" fill="#C6209A"/>
<path d="M282.747 74.36C282.96 73.264 284.441 72.281 284.441 71.124C284.441 69.967 282.96 68.984 282.747 67.888C282.524 66.772 283.508 65.291 283.082 64.257C282.646 63.212 280.901 62.857 280.272 61.924C279.643 60.991 279.988 59.236 279.187 58.445C278.396 57.644 276.651 57.989 275.708 57.36C274.775 56.731 274.43 54.987 273.375 54.55C272.34 54.124 270.859 55.108 269.744 54.885C268.659 54.672 267.665 53.191 266.508 53.191C265.362 53.191 264.368 54.672 263.283 54.885C262.157 55.108 260.676 54.124 259.642 54.55C258.597 54.986 258.252 56.731 257.319 57.36C256.376 57.989 254.631 57.644 253.83 58.445C253.039 59.236 253.374 60.991 252.745 61.924C252.126 62.857 250.371 63.212 249.935 64.257C249.509 65.292 250.493 66.772 250.27 67.888C250.057 68.983 248.576 69.967 248.576 71.124C248.576 72.281 250.057 73.264 250.27 74.36C250.493 75.476 249.509 76.956 249.935 77.991C250.371 79.036 252.126 79.391 252.745 80.324C253.374 81.257 253.029 83.012 253.83 83.803C254.631 84.604 256.376 84.26 257.309 84.888C258.242 85.517 258.597 87.261 259.642 87.698C260.676 88.124 262.157 87.14 263.283 87.363C264.368 87.576 265.362 89.057 266.508 89.057C267.664 89.057 268.658 87.576 269.744 87.363C270.86 87.14 272.341 88.124 273.375 87.698C274.43 87.262 274.775 85.517 275.708 84.888C276.651 84.259 278.396 84.604 279.187 83.803C279.988 83.012 279.644 81.257 280.272 80.324C280.901 79.391 282.646 79.036 283.082 77.991C283.507 76.956 282.524 75.475 282.747 74.36ZM266.508 80.425C261.376 80.425 257.207 76.256 257.207 71.124C257.207 65.992 261.376 61.823 266.508 61.823C271.65 61.823 275.809 65.992 275.809 71.124C275.809 76.256 271.65 80.425 266.508 80.425Z" fill="#7D8EA0"/>
<path d="M371.292 310.478H357.324V317.145H371.292V310.478Z" fill="#FEC130"/>
<path d="M372.083 304.811H356.533C355.547 304.811 354.748 305.499 354.748 306.347V308.942C354.748 309.79 355.547 310.478 356.533 310.478H372.083C373.069 310.478 373.868 309.79 373.868 308.942V306.347C373.868 305.498 373.069 304.811 372.083 304.811Z" fill="#C6209A"/>
<path d="M364.308 383.978C383.145 383.978 398.415 368.708 398.415 349.871C398.415 331.034 383.145 315.764 364.308 315.764C345.471 315.764 330.201 331.034 330.201 349.871C330.201 368.708 345.471 383.978 364.308 383.978Z" fill="#C6209A"/>
<path d="M388.066 354.932C390.865 341.821 382.506 328.924 369.395 326.125C356.285 323.326 343.387 331.685 340.588 344.795C337.789 357.906 346.148 370.804 359.259 373.603C372.37 376.402 385.267 368.043 388.066 354.932Z" fill="#FEC130"/>
<path d="M370.318 349.871C370.318 353.19 367.627 355.881 364.308 355.881C360.989 355.881 358.298 353.19 358.298 349.871C358.298 346.552 360.989 343.861 364.308 343.861C367.627 343.861 370.318 346.552 370.318 349.871Z" fill="#C6209A"/>
<path d="M364.307 351.372C364.093 351.372 363.875 351.326 363.669 351.229C362.92 350.876 362.598 349.983 362.95 349.233L371.177 331.747C371.53 330.998 372.423 330.676 373.173 331.028C373.922 331.381 374.244 332.274 373.892 333.024L365.665 350.51C365.41 351.053 364.871 351.372 364.307 351.372Z" fill="#C6209A"/>
<path d="M364.308 329.687C363.755 329.687 363.308 329.24 363.308 328.687V322.52C363.308 321.967 363.755 321.52 364.308 321.52C364.861 321.52 365.308 321.967 365.308 322.52V328.687C365.308 329.24 364.861 329.687 364.308 329.687Z" fill="#C6209A"/>
<path d="M364.308 378.222C363.755 378.222 363.308 377.775 363.308 377.222V371.056C363.308 370.503 363.755 370.056 364.308 370.056C364.861 370.056 365.308 370.503 365.308 371.056V377.222C365.308 377.775 364.861 378.222 364.308 378.222Z" fill="#C6209A"/>
<path d="M391.659 350.872H385.492C384.939 350.872 384.492 350.425 384.492 349.872C384.492 349.319 384.939 348.872 385.492 348.872H391.659C392.212 348.872 392.659 349.319 392.659 349.872C392.659 350.424 392.212 350.872 391.659 350.872Z" fill="#C6209A"/>
<path d="M343.124 350.872H336.957C336.404 350.872 335.957 350.425 335.957 349.872C335.957 349.319 336.404 348.872 336.957 348.872H343.124C343.677 348.872 344.124 349.319 344.124 349.872C344.124 350.424 343.676 350.872 343.124 350.872Z" fill="#C6209A"/>
<path d="M379.288 335.642C379.096 335.642 378.904 335.569 378.758 335.422C378.465 335.129 378.465 334.654 378.758 334.361L383.118 330.001C383.411 329.708 383.886 329.708 384.179 330.001C384.472 330.294 384.472 330.769 384.179 331.062L379.819 335.422C379.672 335.569 379.48 335.642 379.288 335.642Z" fill="#C6209A"/>
<path d="M344.967 369.961C344.775 369.961 344.583 369.888 344.437 369.741C344.144 369.448 344.144 368.973 344.437 368.681L348.798 364.321C349.091 364.028 349.566 364.028 349.859 364.321C350.152 364.614 350.152 365.089 349.859 365.382L345.498 369.742C345.351 369.888 345.16 369.961 344.967 369.961Z" fill="#C6209A"/>
<path d="M383.648 369.961C383.456 369.961 383.264 369.888 383.118 369.741L378.758 365.381C378.465 365.088 378.465 364.613 378.758 364.32C379.051 364.027 379.526 364.027 379.819 364.32L384.179 368.68C384.472 368.973 384.472 369.448 384.179 369.74C384.032 369.888 383.84 369.961 383.648 369.961Z" fill="#C6209A"/>
<path d="M349.329 335.642C349.137 335.642 348.945 335.569 348.799 335.422L344.438 331.062C344.145 330.769 344.145 330.294 344.438 330.001C344.731 329.708 345.206 329.708 345.498 330.001L349.859 334.361C350.152 334.654 350.152 335.129 349.859 335.422C349.713 335.569 349.521 335.642 349.329 335.642Z" fill="#C6209A"/>
<path d="M435.009 166.942L431.313 170.638L442.944 182.269L446.64 178.573L435.009 166.942Z" fill="#FEC130"/>
<path d="M437.614 178.982L451.861 193.229C453.447 194.815 456.017 194.815 457.603 193.229C459.189 191.643 459.189 189.073 457.603 187.487L443.356 173.24L437.614 178.982Z" fill="#C6209A"/>
<path d="M419.146 177.472C431.683 177.472 441.846 167.309 441.846 154.772C441.846 142.235 431.683 132.072 419.146 132.072C406.609 132.072 396.446 142.235 396.446 154.772C396.446 167.309 406.609 177.472 419.146 177.472Z" fill="#7D8EA0"/>
<path d="M419.146 170.823C428.01 170.823 435.197 163.637 435.197 154.772C435.197 145.907 428.01 138.721 419.146 138.721C410.281 138.721 403.095 145.907 403.095 154.772C403.095 163.637 410.281 170.823 419.146 170.823Z" fill="#8BD2E7"/>
<path d="M416.578 143.333C417.511 144.266 417.511 145.779 416.578 146.712C415.645 147.645 414.132 147.645 413.199 146.712C412.266 145.779 412.266 144.266 413.199 143.333C414.132 142.4 415.645 142.4 416.578 143.333Z" fill="white"/>
<path d="M423.522 143.52C424.185 144.183 424.185 145.259 423.522 145.923C422.859 146.586 421.783 146.586 421.119 145.923C420.456 145.26 420.456 144.184 421.119 143.52C421.783 142.857 422.859 142.857 423.522 143.52Z" fill="white"/>
<path d="M394.613 180.26L361.25 211.667L382.428 217.278L367.755 243.951L404.233 210.677L381.837 204.743L394.613 180.26Z" fill="#FEC130"/>
<path d="M67.7358 235.617L83.1408 268.278L92.5088 253.774L108.923 271.272L92.8768 235.822L82.9698 251.161L67.7358 235.617Z" fill="#FEC130"/>
<path d="M209.722 45.26L220.703 75.195C221.362 76.991 220.439 78.984 218.643 79.643L165.748 99.047C163.952 99.706 161.959 98.783 161.301 96.987L150.32 67.052C150.005 66.193 150.044 65.293 150.38 64.519C150.732 63.666 151.443 62.948 152.38 62.604L205.274 43.2C206.211 42.856 207.218 42.945 208.038 43.367C208.795 43.74 209.407 44.401 209.722 45.26Z" fill="#FEC130"/>
<path d="M208.038 43.368L202.655 58.35C202.209 59.591 201.236 60.571 199.997 61.026L167.93 72.789C166.692 73.243 165.316 73.125 164.173 72.467L150.379 64.52C150.731 63.667 151.442 62.949 152.379 62.605L205.274 43.2C206.211 42.856 207.218 42.945 208.038 43.368Z" fill="#F69C00"/>
<path d="M348.75 200.641C349.482 223.407 342.385 244.497 329.948 261.409C315.393 281.202 304.389 303.374 296.599 326.675L292.743 338.208H210.323L207.092 328.544C199.041 304.463 187.741 281.517 172.808 260.981C161.144 244.94 154.263 225.196 154.263 203.847C154.263 149.701 198.508 105.878 252.826 106.581C304.554 107.251 347.087 148.934 348.75 200.641Z" fill="#FEC130"/>
<path d="M292.742 338.208H210.322V392.44H292.742V338.208Z" fill="#8BD2E7"/>
<path d="M273.223 409.45H229.842L210.322 392.44H292.742L273.223 409.45Z" fill="#7D8EA0"/>
<path d="M258.258 424.415H244.806C236.541 424.415 229.841 417.715 229.841 409.45H273.223C273.223 417.715 266.523 424.415 258.258 424.415Z" fill="#2B6B87"/>
<path d="M291.037 354.796H212.027C208.973 354.796 206.496 352.32 206.496 349.266C206.496 346.212 208.972 343.736 212.027 343.736H291.037C294.091 343.736 296.568 346.212 296.568 349.266C296.568 352.32 294.092 354.796 291.037 354.796Z" fill="#7D8EA0"/>
<path d="M291.037 371.017H212.027C208.973 371.017 206.496 368.541 206.496 365.486C206.496 362.432 208.972 359.956 212.027 359.956H291.037C294.091 359.956 296.568 362.432 296.568 365.486C296.568 368.541 294.092 371.017 291.037 371.017Z" fill="#7D8EA0"/>
<path d="M291.037 387.238H212.027C208.973 387.238 206.496 384.762 206.496 381.708C206.496 378.654 208.972 376.177 212.027 376.177H291.037C294.091 376.177 296.568 378.653 296.568 381.708C296.568 384.762 294.092 387.238 291.037 387.238Z" fill="#7D8EA0"/>
<path d="M308.94 141.428C306.154 147.136 294.064 146.964 281.936 141.045C269.807 135.126 262.234 125.7 265.019 119.992C267.805 114.284 279.895 114.456 292.023 120.375C304.152 126.295 311.726 135.721 308.94 141.428Z" fill="white"/>
<path d="M322.618 167.066C326.736 167.066 330.074 163.728 330.074 159.61C330.074 155.492 326.736 152.154 322.618 152.154C318.5 152.154 315.162 155.492 315.162 159.61C315.162 163.728 318.5 167.066 322.618 167.066Z" fill="white"/>
<path d="M307.132 224.496C307.132 220.008 305.315 215.945 302.376 213.001C303.895 210.072 304.759 206.749 304.759 203.222C304.759 191.473 295.234 181.948 283.485 181.948C282.834 181.948 282.191 181.982 281.555 182.039C278.81 176.932 273.419 173.458 267.214 173.458C263.28 173.458 259.673 174.854 256.86 177.177C253.891 173.232 249.17 170.68 243.852 170.68C239.473 170.68 235.501 172.413 232.576 175.227C230.361 174.098 227.856 173.458 225.2 173.458C218.315 173.458 212.434 177.736 210.057 183.778C198.689 183.812 189.484 193.036 189.484 204.412C189.484 214.554 196.802 222.981 206.444 224.715C210.173 231.683 218.699 236.556 228.627 236.556C230.344 236.556 232.018 236.408 233.634 236.131C236.514 240.72 243.063 244.375 251.369 246.084C254.234 252.029 261.738 256.415 270.783 256.972C270.963 257.553 271.194 258.138 271.477 258.723C272.016 259.834 272.844 260.773 273.634 261.722C276.989 265.757 279.916 270.661 279.526 275.894C281.003 275.417 282.481 274.94 283.958 274.463C284.402 274.32 284.858 274.17 285.215 273.87C286.504 272.789 285.77 270.748 285.271 269.142C283.806 264.423 285.426 259.298 285.109 254.388C291.286 251.483 295.37 246.469 295.37 240.766C295.37 240.551 295.359 240.338 295.347 240.125C302.15 238.176 307.132 231.923 307.132 224.496Z" fill="#FDAFB3" stroke="white" stroke-width="9" stroke-miterlimit="10" stroke-linecap="round" stroke-linejoin="round"/>
<path d="M295.371 240.766C295.371 231.78 285.238 224.495 272.739 224.495C260.239 224.495 250.107 231.78 250.107 240.766C250.107 249.278 259.201 256.259 270.784 256.972C270.964 257.553 271.195 258.138 271.478 258.723C272.017 259.834 272.845 260.773 273.635 261.722C276.99 265.757 279.917 270.661 279.527 275.894C281.004 275.417 282.482 274.94 283.959 274.463C284.403 274.32 284.859 274.17 285.216 273.87C286.505 272.789 285.771 270.748 285.272 269.142C283.807 264.423 285.427 259.298 285.11 254.388C291.287 251.483 295.371 246.469 295.371 240.766Z" fill="#D98490"/>
<path d="M302.376 213.001C303.895 210.072 304.759 206.749 304.759 203.222C304.759 191.473 295.234 181.948 283.485 181.948C282.834 181.948 282.191 181.982 281.555 182.039C278.81 176.932 273.419 173.458 267.214 173.458C263.28 173.458 259.673 174.854 256.86 177.177C253.891 173.232 249.17 170.68 243.852 170.68C239.473 170.68 235.501 172.413 232.576 175.227C230.361 174.098 227.856 173.458 225.2 173.458C218.315 173.458 212.434 177.736 210.057 183.778C198.689 183.812 189.484 193.036 189.484 204.412C189.484 214.554 196.802 222.981 206.444 224.715C210.173 231.683 218.699 236.556 228.627 236.556C230.344 236.556 232.018 236.408 233.634 236.131C237.654 242.535 248.799 247.142 261.928 247.142C272.093 247.142 281.067 244.38 286.47 240.162C287.867 240.553 289.338 240.766 290.86 240.766C299.846 240.766 307.131 233.481 307.131 224.495C307.132 220.008 305.315 215.945 302.376 213.001Z" fill="#C6209A"/>
<path d="M210.515 211.33C207.88 206.03 212.315 203.545 216.555 202.325C218.241 201.84 219.854 201.292 220.894 199.789C221.984 198.214 221.763 196.818 221.661 195.019C221.474 191.735 221.203 190.025 224.037 187.874C226.226 186.212 229.169 185.913 231.807 185.577C233.645 185.343 233.668 182.421 231.807 182.658C227.77 183.172 223.494 183.777 220.607 186.946C219.549 188.108 218.812 189.454 218.539 191.007C218.149 193.23 219.753 197.279 217.66 198.883C216.188 200.011 213.539 199.8 211.838 200.592C210.5 201.215 209.381 202.133 208.512 203.335C206.433 206.21 206.47 209.738 207.993 212.802C208.831 214.485 211.35 213.008 210.515 211.33Z" fill="#D98490"/>
<path d="M252.769 185.336C250.816 188.314 250.425 192.499 251.25 195.952C252.181 199.846 254.104 199.229 257.08 200.563C261.014 202.327 260.271 207.758 263.947 210.274C267.702 212.843 272.467 212.131 276.666 211.442C278.515 211.138 277.73 208.325 275.89 208.628C271.173 209.402 265.26 209.999 263.224 204.499C262.588 202.782 262.685 200.742 261.337 199.319C260.002 197.91 258.72 198.255 257.08 197.646C252.797 196.054 253.091 190.164 255.289 186.811C256.322 185.234 253.796 183.77 252.769 185.336Z" fill="#D98490"/>
<path d="M219.536 226.377C217.016 223.842 216.273 220.397 218.63 217.428C220.312 215.309 221.836 215.819 224.252 216.275C228.091 217 232.002 217.636 235.74 216.067C238.397 214.952 238.954 213.174 240.643 211.034C244.032 206.74 249.838 205.415 253.69 209.943C254.909 211.376 256.965 209.303 255.754 207.879C253.282 204.973 248.617 203.227 244.878 204.399C242.284 205.212 239.808 207.29 238.186 209.426C237.577 210.228 237.162 211.357 236.468 212.072C234.485 214.117 231.267 214.295 228.564 214.035C224.32 213.628 219.84 211.21 216.714 215.122C213.209 219.508 213.575 224.521 217.472 228.44C218.798 229.775 220.862 227.711 219.536 226.377Z" fill="#D98490"/>
<path d="M249.874 218.112C248.641 225.852 255.492 235.312 263.905 232.692C265.216 232.284 266.103 231.423 267.292 230.842C271.993 228.544 274.897 231.125 278.42 233.689C283.272 237.221 285.529 233.453 290.295 231.895C292.072 231.314 291.312 228.494 289.519 229.08C287.999 229.577 286.796 230.549 285.354 231.167C281.367 232.876 280.273 230.977 277.335 228.943C274.91 227.264 271.872 226.765 268.959 227.259C266.563 227.665 264.976 229.391 262.694 229.993C256.85 231.534 251.833 224.27 252.69 218.888C252.981 217.05 250.169 216.259 249.874 218.112Z" fill="#D98490"/>
<path d="M277.894 187.725C277.247 190.319 277.344 193.501 279.819 195.136C280.987 195.908 282.322 196.008 283.679 196.038C285.718 196.084 287.405 195.302 288.27 198.652C288.501 199.548 288.155 201.232 288.044 202.055C287.748 204.253 286.962 206.57 288.637 208.409C290.492 210.446 293.634 210.503 295.764 208.955C297.269 207.861 295.814 205.328 294.291 206.435C293.052 207.586 291.785 207.327 290.491 205.658C290.514 205.012 290.589 204.371 290.714 203.736C290.814 202.991 290.962 202.252 291.047 201.504C291.248 199.744 291.366 197.845 290.649 196.176C289.984 194.628 288.832 193.656 287.195 193.222C286.397 193.01 285.551 193.181 284.752 193.085C281.475 192.692 279.896 191.761 280.709 188.502C281.163 186.678 278.349 185.901 277.894 187.725Z" fill="#D98490"/>
<path d="M229.103 203.449C229.406 201.748 229.709 200.047 230.013 198.346C230.689 197.905 231.365 197.464 232.042 197.023C233.207 196.728 233.5 197.053 234.441 197.235C235.342 197.409 236.131 197.887 237.073 197.954C239.299 198.112 241.225 196.911 242.583 195.196C243.808 193.649 244.337 191.918 244.083 189.961C243.62 186.388 241.333 184.347 245.723 182.163C247.405 181.326 245.928 178.808 244.25 179.643C241.694 180.914 239.522 182.56 239.826 185.652C239.969 187.114 240.869 188.37 241.084 189.798C241.565 192.985 239.303 195.252 236.176 194.753C233.22 194.281 231.631 193.514 228.908 195.477C225.652 197.824 224.449 201.414 226.582 204.922C227.558 206.525 230.083 205.06 229.103 203.449Z" fill="#D98490"/>
<path d="M227.888 229.425C230.844 227.374 236.38 224.199 238.594 229.105C239.414 230.921 239.335 232.53 240.714 234.191C243.127 237.097 246.65 238.105 250.272 237.569C252.123 237.295 251.336 234.482 249.496 234.755C244.637 235.475 242.652 232.253 241.408 228.33C240.83 226.508 240.54 225.029 238.668 224.076C234.847 222.133 229.53 224.743 226.415 226.905C224.882 227.968 226.339 230.499 227.888 229.425Z" fill="#D98490"/>
<path d="M199.937 210.772C198.141 208.098 196.991 204.661 198.814 201.655C200.645 198.636 203.752 199.39 206.487 198.081C209.267 196.75 210.157 193.796 209.407 190.97C208.926 189.156 206.109 189.925 206.592 191.746C207.822 196.379 201.569 195.812 199.308 197.151C197.764 198.065 196.567 199.472 195.821 201.098C194.093 204.863 195.21 208.962 197.416 212.246C198.458 213.797 200.988 212.337 199.937 210.772Z" fill="#D98490"/>
<path d="M260.758 216.725C263.403 221.336 269.801 222.838 274.74 223.129C277.481 223.29 279.725 222.603 282.177 221.416C283.749 220.655 285.351 219.465 287.05 219.022C291.005 217.991 294.679 221.63 293.381 225.747C292.815 227.543 295.632 228.311 296.196 226.523C297.802 221.425 293.423 214.593 287.639 215.757C283.603 216.569 280.487 219.996 276.279 220.277C272.183 220.55 265.445 219.027 263.279 215.252C262.344 213.623 259.821 215.092 260.758 216.725Z" fill="#D98490"/>
<path d="M272.809 198.425C270.305 196.88 267.734 194.598 268.084 191.34C268.421 188.202 270.891 188.175 272.515 186.131C274.096 184.142 273.968 181.483 272.595 179.45C271.55 177.901 269.02 179.361 270.075 180.923C272.194 184.062 267.818 185.375 266.353 187.518C265.445 188.847 265.046 190.519 265.095 192.12C265.216 196.084 268.174 198.993 271.337 200.945C272.939 201.935 274.407 199.411 272.809 198.425Z" fill="#D98490"/>
<path d="M262.865 251.908C271.293 252.499 280.65 250.102 287.729 245.421C289.289 244.39 287.829 241.861 286.256 242.901C279.591 247.307 270.794 249.545 262.865 248.989C260.991 248.858 260.999 251.777 262.865 251.908Z" fill="#FDAFB3"/>
<path d="M275.317 256.053C278.067 255.568 280.487 254.739 282.987 253.497C284.669 252.661 283.192 250.143 281.514 250.977C279.237 252.108 277.044 252.797 274.541 253.239C272.694 253.564 273.477 256.378 275.317 256.053Z" fill="#FDAFB3"/>
<path d="M177.731 204.722H163.624C162.549 204.722 161.678 203.851 161.678 202.776C161.678 201.701 162.549 200.83 163.624 200.83H177.731C178.806 200.83 179.677 201.701 179.677 202.776C179.677 203.851 178.806 204.722 177.731 204.722Z" fill="#F69C00"/>
<path d="M334.737 204.722H320.63C319.555 204.722 318.684 203.851 318.684 202.776C318.684 201.701 319.555 200.83 320.63 200.83H334.737C335.812 200.83 336.683 201.701 336.683 202.776C336.683 203.851 335.812 204.722 334.737 204.722Z" fill="#F69C00"/>
<path d="M203.749 158.63C203.251 158.63 202.753 158.44 202.373 158.06L192.398 148.084C191.638 147.324 191.638 146.092 192.398 145.333C193.157 144.573 194.39 144.573 195.15 145.333L205.125 155.309C205.885 156.069 205.885 157.301 205.125 158.061C204.745 158.44 204.247 158.63 203.749 158.63Z" fill="#F69C00"/>
<path d="M314.769 269.65C314.271 269.65 313.773 269.46 313.393 269.08L303.418 259.105C302.658 258.345 302.658 257.114 303.418 256.354C304.178 255.594 305.41 255.594 306.17 256.354L316.145 266.329C316.905 267.089 316.905 268.321 316.145 269.081C315.764 269.459 315.266 269.65 314.769 269.65Z" fill="#F69C00"/>
<path d="M250.678 141.154C249.603 141.154 248.732 140.283 248.732 139.208V125.101C248.732 124.026 249.603 123.155 250.678 123.155C251.753 123.155 252.623 124.026 252.623 125.101V139.208C252.623 140.283 251.753 141.154 250.678 141.154Z" fill="#F69C00"/>
<path d="M250.678 298.159C249.603 298.159 248.732 297.288 248.732 296.213V282.106C248.732 281.031 249.603 280.16 250.678 280.16C251.753 280.16 252.623 281.031 252.623 282.106V296.213C252.623 297.288 251.753 298.159 250.678 298.159Z" fill="#F69C00"/>
<path d="M304.793 160.671C304.295 160.671 303.797 160.481 303.417 160.101C302.657 159.341 302.657 158.109 303.417 157.349L313.392 147.373C314.152 146.613 315.383 146.613 316.143 147.373C316.903 148.133 316.903 149.365 316.143 150.125L306.168 160.101C305.789 160.481 305.291 160.671 304.793 160.671Z" fill="#F69C00"/>
<path d="M193.774 271.69C193.276 271.69 192.778 271.5 192.398 271.12C191.638 270.36 191.638 269.129 192.398 268.369L202.373 258.394C203.132 257.634 204.365 257.634 205.124 258.394C205.884 259.154 205.884 260.385 205.124 261.146L195.149 271.121C194.77 271.5 194.272 271.69 193.774 271.69Z" fill="#F69C00"/>
<path d="M39.855 294.63L34.396 300.088C33.37 301.114 33.37 302.778 34.396 303.804L69.146 338.553L76.462 331.237L39.855 294.63Z" fill="#A81A8A"/>
<path d="M64.6859 269.795L34.936 299.545L68.4674 333.076L98.2173 303.327L64.6859 269.795Z" fill="#C6209A"/>
<path d="M99.5311 308.169C100.368 309.006 101.457 309.43 102.556 309.44L74.1471 337.849C73.3811 338.615 72.2011 338.827 71.2321 338.343C70.8491 338.141 70.4761 337.869 70.1531 337.546C69.8201 337.213 69.5581 336.85 69.3461 336.457C68.8621 335.489 69.0741 334.309 69.8401 333.543L98.2491 305.134C98.2601 306.233 98.6841 307.322 99.5311 308.169Z" fill="#FEC130"/>
<path d="M69.8427 333.541C69.0757 334.308 68.8557 335.49 69.3527 336.454C69.5547 336.846 69.8217 337.215 70.1537 337.546C70.4817 337.874 70.8477 338.138 71.2387 338.339C72.2017 338.835 73.3827 338.614 74.1487 337.848L103.444 308.553L104.362 309.471L75.2877 338.545C74.4307 339.402 73.3007 339.826 72.1717 339.826C71.0727 339.816 69.9837 339.392 69.1467 338.555C68.2997 337.708 67.8757 336.619 67.8657 335.52C67.8657 335.5 67.8657 335.5 67.8657 335.48C67.8757 334.361 68.2997 333.251 69.1467 332.404L98.2207 303.33L99.1387 304.248L69.8427 333.541Z" fill="#E52CBD"/>
<path d="M97.299 311.147L72.675 335.771C72.466 335.98 72.127 335.98 71.919 335.771C71.71 335.562 71.71 335.223 71.919 335.015L96.543 310.391C96.752 310.182 97.091 310.182 97.299 310.391C97.507 310.6 97.508 310.938 97.299 311.147Z" fill="#F69C00"/>
<path d="M84.3538 337.028L82.1688 337.196L81.9998 339.381L75.1548 332.535L77.5078 330.182L84.3538 337.028Z" fill="#7D8EA0"/>
<path d="M69.8123 288.032L53.1729 304.671L57.3744 308.873L74.0139 292.234L69.8123 288.032Z" fill="white"/>
</svg>
