<svg width="99" height="130" viewBox="0 0 99 130" fill="none" xmlns="http://www.w3.org/2000/svg">
<path fill-rule="evenodd" clip-rule="evenodd" d="M0.621002 78.286L7.854 76.325L11.371 71.98C30.875 75.863 104.106 105.179 98.183 127.987C76.426 134.292 23.961 111.388 0.621002 78.286Z" fill="#006AA3"/>
<path fill-rule="evenodd" clip-rule="evenodd" d="M0.621002 78.286L7.854 76.325L11.371 71.98C30.875 75.863 104.106 105.179 98.183 127.987C81.762 133.793 24.514 108.399 0.621002 78.286Z" fill="#EF7D00"/>
<path fill-rule="evenodd" clip-rule="evenodd" d="M5.87601 80.6598L12.332 78.9098L15.472 75.0308C32.882 78.4968 98.25 104.665 92.962 125.024C78.305 130.208 27.203 107.54 5.87601 80.6598Z" fill="white"/>
<path fill-rule="evenodd" clip-rule="evenodd" d="M10.662 82.8231L16.411 81.2641L19.207 77.8101C34.71 80.8961 92.917 104.198 88.209 122.327C75.157 126.942 29.653 106.758 10.662 82.8231Z" fill="#D55419"/>
<path fill-rule="evenodd" clip-rule="evenodd" d="M55.032 43.657C56.453 47.625 57.221 56.034 55.122 69.87C54.858 71.618 52.196 72.84 50.131 70.93C48.071 69.021 45.134 50.416 47.002 49.199C48.871 47.977 52.757 39.332 55.032 43.657Z" fill="#DB9669"/>
<path fill-rule="evenodd" clip-rule="evenodd" d="M37.965 76.6431C37.205 78.1671 37.164 82.0371 37.375 82.8531C37.493 86.2231 39.222 87.6631 39.131 92.5351C39.081 95.2551 39.25 95.0991 40.558 95.1681C41.639 95.2321 42.986 94.3931 42.862 93.6671C42.777 93.1731 43.327 88.8081 43.854 85.9311C44.41 82.8921 43.83 77.4651 43.825 75.3081C43.825 74.7131 43.428 74.1971 42.85 74.0601C39.956 74.2421 39.353 73.8301 37.965 76.6431Z" fill="#F2B387"/>
<path fill-rule="evenodd" clip-rule="evenodd" d="M52.656 47.4857C52.656 47.4857 52.692 51.8697 48.88 54.5977C48.733 62.5537 45.2 72.9567 44.016 75.5077C43.271 77.1107 40.11 78.2917 38.916 75.5607C38.78 74.4137 39.222 71.0227 38.733 68.9947C36.57 60.0237 34.869 49.2027 40.21 43.9777C41.245 43.3987 46.917 39.6077 50.953 39.6657C54.515 39.7157 56.875 43.2687 52.656 47.4857Z" fill="#F2B387"/>
<path fill-rule="evenodd" clip-rule="evenodd" d="M48.77 67.834C48.77 67.834 49.353 69.74 48.567 71.245C47.773 72.751 47.646 76.618 47.835 77.44C48.442 80.107 49.594 86.13 49.39 88.529C49.299 90.448 49.614 91.111 50.921 91.21C52.002 91.297 53.269 91.015 53.159 90.289C53.089 89.791 53.652 83.53 54.246 80.667C55.029 76.88 54.306 70.605 55.032 70.235L48.77 67.834Z" fill="#DB9669"/>
<path fill-rule="evenodd" clip-rule="evenodd" d="M39.064 95.4978C39.01 96.3348 38.267 96.2798 38.29 98.3088C38.468 98.9218 38.405 99.5348 40.548 99.8298C42.777 99.7638 43.305 101.294 44.353 102.041C46.23 103.165 50.813 102.61 50.719 101.751C50.583 100.5 43.842 97.3448 42.918 95.3118C42.68 94.7998 42.863 93.2388 42.863 93.2388C42.863 93.2388 42.838 93.7548 42.456 94.1758C39.958 96.9308 39.364 90.8888 39.064 95.4978Z" fill="#F2B387"/>
<path fill-rule="evenodd" clip-rule="evenodd" d="M49.647 22.3441C51.359 24.7691 54.738 32.7771 57.738 35.1581C59.136 36.2651 60.404 33.1161 59.972 32.7341C58.593 30.1711 56.214 22.7081 53.705 19.1501C51.197 15.5921 48.176 15.3661 46.71 16.4271C45.246 17.4911 47.141 18.7871 49.647 22.3441Z" fill="#1B507F"/>
<path fill-rule="evenodd" clip-rule="evenodd" d="M38.379 26.2178C37.726 24.7248 35.607 23.0288 36.142 21.3528C37.098 19.6428 41.052 17.0678 42.611 16.3528C45.538 15.3848 48.038 15.5528 51.283 16.7378C52.488 17.1858 52.719 22.9318 54.674 24.5578C54.911 26.1858 54.488 28.8588 53.11 29.8648C52.091 31.1318 52.393 32.2328 52.9 35.0488C53.49 38.3428 54.51 40.6908 54.815 41.8918C55.526 46.7448 41 49.3928 38.144 46.9168C38.879 42.4938 41.005 41.1168 40.383 36.0238C39.905 32.1008 38.621 29.2338 38.379 26.2178Z" fill="#00699F"/>
<path d="M51.547 22.651L51.267 21.986C50.43 19.992 49.389 17.509 47.982 16.493L48.261 16.106C49.777 17.201 50.847 19.752 51.707 21.801L51.986 22.463L51.547 22.651Z" fill="#00699F"/>
<path d="M43.026 23.3297C42.324 20.8817 41.666 19.3927 41.011 18.7787L41.339 18.4307C42.067 19.1147 42.748 20.6297 43.484 23.1977L43.026 23.3297Z" fill="#00699F"/>
<path fill-rule="evenodd" clip-rule="evenodd" d="M57.196 31.8637C57.892 29.2147 62.995 22.2937 63.857 20.1257C64.514 18.0917 66.357 20.1057 66.077 21.4427C65.303 23.1577 64.368 27.5387 61.997 32.3807C59.671 37.1297 56.11 36.0097 57.196 31.8637Z" fill="#1B507F"/>
<path fill-rule="evenodd" clip-rule="evenodd" d="M34.818 25.6357C34.461 28.5827 34.392 35.5147 34.724 39.3237C34.882 41.0997 38.969 39.9897 39.052 39.4157C39.269 36.1287 41.22 32.8647 41.507 26.8537C41.709 22.6227 40.761 21.1947 39.626 20.5757C38.039 19.7087 35.433 20.5527 34.818 25.6357Z" fill="#1B507F"/>
<path fill-rule="evenodd" clip-rule="evenodd" d="M55.775 46.5038C54.419 48.0188 53.013 49.8448 51.479 51.6788C50.92 52.6898 50.096 53.7278 48.88 54.5978C48.775 54.5078 48.671 54.4198 48.566 54.3328L48.527 54.2998L48.491 54.2698L48.487 54.2668L48.409 54.2028L48.37 54.1708L48.331 54.1388L48.297 54.1108L48.292 54.1068L48.253 54.0758L48.251 54.0748L47.942 53.8278L47.911 53.8038L47.671 53.6178L47.632 53.5888L47.594 53.5588C47.324 53.3528 47.056 53.1568 46.789 52.9688L46.769 52.9548L46.751 52.9418L46.713 52.9158L46.45 52.7348L46.409 52.7078C43.209 50.5458 40.229 49.6278 37.328 49.1578C37.542 48.3698 37.812 47.6218 38.145 46.9188C39.747 48.7468 43.664 49.4288 47.316 48.9438C48.254 48.8198 49.174 48.6178 50.033 48.3388H50.034C50.371 48.2298 50.7 48.1078 51.015 47.9748L51.036 47.9658L51.178 47.9038L51.206 47.8908C51.346 47.8288 51.483 47.7638 51.618 47.6968L51.677 47.6678L51.8 47.6048L51.851 47.5778L51.993 47.5008L52.138 47.4188L52.187 47.3898L52.314 47.3138L52.371 47.2788L52.524 47.1808C54.016 46.2028 54.987 44.8498 54.975 43.1148L54.977 43.1128C55.158 43.7228 55.629 45.7258 55.775 46.5038Z" fill="#3C3C3B"/>
<path fill-rule="evenodd" clip-rule="evenodd" d="M49.3 90.4489C49.246 91.2859 48.503 91.2309 48.526 93.2599C48.704 93.8729 49.832 94.4809 51.15 94.8179C53.379 94.7519 53.731 96.6809 54.778 97.4289C55.312 97.8109 55.889 97.9579 57.212 97.8249C58.531 97.9709 59.306 97.9249 59.598 97.1559C59.794 96.5859 58.556 95.7479 58.556 95.7479C56.621 94.1909 54.281 92.8259 53.225 90.5049C52.987 89.9929 53.097 88.1909 53.097 88.1909C53.097 88.1909 53.072 88.7069 52.69 89.1279C50.193 91.8809 49.599 85.8399 49.3 90.4489Z" fill="#DB9669"/>
<path fill-rule="evenodd" clip-rule="evenodd" d="M47.089 1.55078C46.716 1.65378 45.176 7.11278 45.277 11.9128C45.378 16.6918 50.698 18.5698 52.058 18.3088C49.607 9.52478 50.813 5.16278 50.813 5.16278L47.089 1.55078Z" fill="#261203"/>
<path fill-rule="evenodd" clip-rule="evenodd" d="M50.211 5.28078C50.296 8.22178 51.425 12.6438 48.294 15.1618C47.352 15.9208 42.988 14.3798 42.35 12.0988C42.35 12.0988 41.799 7.98678 42.383 6.01178C42.967 4.03578 43.879 2.62478 45.341 1.98278C46.809 1.34378 49.722 0.896784 50.211 5.28078Z" fill="#F1B287"/>
<path fill-rule="evenodd" clip-rule="evenodd" d="M47.811 15.34C47.798 15.435 47.77 15.7 47.893 16.99C47.728 17.843 47.265 18.549 46.671 18.66C42.733 19.4 42.056 16.342 42.642 12.752C43.426 13.659 44.978 15.263 47.811 15.34Z" fill="#DB9669"/>
<path fill-rule="evenodd" clip-rule="evenodd" d="M41.833 0.644869C39.033 2.50887 38.213 10.4239 38.318 15.3819C38.418 20.1609 44.739 20.1149 44.739 20.1149C43.717 18.0039 42.543 8.44387 46.521 7.60987C48.549 7.25187 50.972 6.64487 51.188 5.38887C51.19 1.81287 44.605 -1.20013 41.833 0.644869Z" fill="#E01212"/>
<path fill-rule="evenodd" clip-rule="evenodd" d="M35.677 36.9331C36.624 35.5601 44.687 41.2511 48.706 41.1791C49.054 41.1371 49.643 44.3421 49.135 44.3191C40.086 43.5511 32.106 42.1111 35.677 36.9331Z" fill="#1B507F"/>
<path fill-rule="evenodd" clip-rule="evenodd" d="M49.538 41.0507C50.22 40.5867 51.684 40.2137 52.206 40.1087C52.878 39.9737 53.231 40.0427 53.903 39.9077C53.764 40.4027 53.932 40.6897 52.72 40.8267C51.93 41.2127 50.108 43.3287 49.524 42.3167C49.328 41.6557 48.642 41.5687 49.538 41.0507Z" fill="#DB9669"/>
<path fill-rule="evenodd" clip-rule="evenodd" d="M63.772 20.568C63.746 20.161 63.789 20.653 63.896 20.028C65.239 17.419 65.199 15.938 65.26 15.739C65.365 15.394 65.113 15.627 65.245 15.315C65.429 14.881 65.861 15.394 66.245 16.076C67.087 15.777 66.905 17.035 68.29 16.198C67.851 16.891 68.011 17.455 68.683 17.246C68.459 17.77 68.137 18.248 67.967 18.771C67.612 19.859 67.093 20.867 66.077 21.443C65.85 21.829 64.262 21.172 63.772 20.568Z" fill="#DB9669"/>
<path fill-rule="evenodd" clip-rule="evenodd" d="M63.513 19.0189C63.462 18.5469 63.575 17.3339 63.655 16.8649C63.758 16.2609 63.987 15.9429 64.092 15.3379C64.652 15.4619 64.942 15.8299 64.622 16.9199C64.442 18.5639 65.896 19.1589 64.745 20.1509C64.214 20.6069 63.689 20.6409 63.513 19.0189Z" fill="#F2B387"/>
<path d="M17.832 104.744C17.723 104.744 17.61 104.717 17.508 104.659C17.189 104.479 17.075 104.075 17.255 103.756L65.797 17.4528C65.976 17.1348 66.379 17.0178 66.7 17.1998C67.019 17.3798 67.133 17.7838 66.953 18.1028L18.411 104.406C18.289 104.622 18.064 104.744 17.832 104.744Z" fill="#D7E2E8"/>
<path fill-rule="evenodd" clip-rule="evenodd" d="M27.913 85.9229C22.633 90.2729 15.754 94.5829 13.017 101.262C11.426 105.145 20.764 111.289 23.391 108.168C27.607 103.159 27.689 93.3549 27.913 85.9229Z" fill="#EF7D00"/>
<path fill-rule="evenodd" clip-rule="evenodd" d="M28.152 85.563C23.742 89.197 18.26 92.904 14.887 97.839C12.849 102.426 22.292 108.911 25.405 104.771C27.693 99.355 27.968 91.671 28.152 85.563Z" fill="#D7E2E8"/>
<path fill-rule="evenodd" clip-rule="evenodd" d="M67.038 16.4517C67.868 16.8687 68.324 17.6387 68.056 18.1707C67.788 18.7027 66.899 18.7957 66.069 18.3787C65.239 17.9617 64.783 17.1917 65.051 16.6597C65.318 16.1277 66.208 16.0347 67.038 16.4517Z" fill="#D7E2E8"/>
<path fill-rule="evenodd" clip-rule="evenodd" d="M65.217 15.3459L64.838 17.2879C64.723 17.8789 65.51 17.9409 65.674 17.3579L66.205 15.4759C66.37 14.8939 65.332 14.7539 65.217 15.3459Z" fill="#F2B387"/>
<path fill-rule="evenodd" clip-rule="evenodd" d="M66.233 15.6288L65.646 17.5878C65.455 18.2248 66.149 18.5238 66.42 17.9098L67.297 15.9268C67.569 15.3128 66.451 14.9978 66.233 15.6288Z" fill="#F2B387"/>
<path fill-rule="evenodd" clip-rule="evenodd" d="M67.42 16.0197L66.65 17.7137C66.416 18.2287 67.118 18.4447 67.395 17.9467L68.29 16.3387C68.567 15.8407 67.654 15.5037 67.42 16.0197Z" fill="#F2B387"/>
<path fill-rule="evenodd" clip-rule="evenodd" d="M68.309 16.7599L67.353 18.0339C67.062 18.4219 67.598 18.7069 67.92 18.3399L68.962 17.1559C69.285 16.7889 68.599 16.3719 68.309 16.7599Z" fill="#F2B387"/>
<path fill-rule="evenodd" clip-rule="evenodd" d="M48.335 43.2801C48.2 42.8791 48.099 41.2181 48.9 41.1161C49.997 41.1451 51.294 40.8911 51.468 40.8941C51.769 40.8991 53.645 41.0921 53.933 41.1291C54.333 41.1801 54.456 41.7261 54.111 42.2351C54.111 42.5761 53.97 43.0351 53.633 43.1931C53.595 43.5231 53.58 43.7691 53.156 44.1141C53.093 44.3411 53.165 44.7101 52.932 44.8051C52.296 45.2741 51.507 44.9501 50.417 44.7111C49.367 44.4811 48.692 44.3431 48.335 43.2801Z" fill="#F2B387"/>
</svg>
