<svg width="180" height="190" viewBox="0 0 180 190" fill="none" xmlns="http://www.w3.org/2000/svg">
<path d="M105.099 151.772C105.099 147.67 90.7669 144.346 73.0889 144.346C55.4109 144.346 41.0779 147.67 41.0779 151.772C41.0779 153.126 41.0779 157.844 41.0779 159.198C41.0779 163.3 55.4099 166.624 73.0889 166.624C90.7679 166.624 105.099 163.3 105.099 159.198C105.099 157.845 105.099 153.126 105.099 151.772Z" fill="#7EDAFF" stroke="#7EDAFF" stroke-width="3" stroke-miterlimit="10" stroke-linecap="round" stroke-linejoin="round"/>
<path d="M151.462 71.0807C161.448 76.9367 164.581 90.2137 158.444 100.679C152.307 111.144 139.19 114.892 129.204 109.036C119.218 103.179 116.085 89.9007 122.221 79.4357C128.358 68.9717 141.476 65.2237 151.462 71.0807ZM157.026 61.5907C141.784 52.6537 121.952 58.1518 112.733 73.8718C103.512 89.5948 108.397 109.585 123.639 118.524C138.883 127.463 158.713 121.965 167.934 106.243C177.153 90.5218 172.271 70.5297 157.026 61.5907Z" fill="#7EDAFF" stroke="#7EDAFF" stroke-width="3" stroke-miterlimit="10" stroke-linecap="round" stroke-linejoin="round"/>
<path d="M136.769 44.0439V105.485C136.769 133.1 114.382 155.485 86.7689 155.485H59.4089C31.7949 155.485 9.40894 133.1 9.40894 105.485V44.0439H136.769Z" fill="#7EDAFF" stroke="white" stroke-width="3" stroke-miterlimit="10" stroke-linecap="round" stroke-linejoin="round"/>
<path d="M73.088 55.2448C108.258 55.2448 136.769 50.2299 136.769 44.0438C136.769 37.8576 108.258 32.8428 73.088 32.8428C37.9179 32.8428 9.40698 37.8576 9.40698 44.0438C9.40698 50.2299 37.9179 55.2448 73.088 55.2448Z" fill="#7EDAFF" stroke="white" stroke-width="3" stroke-miterlimit="10" stroke-linecap="round" stroke-linejoin="round"/>
<path d="M125.429 50.4207C113.931 47.5067 94.7822 45.5967 73.0891 45.5967C51.3951 45.5967 32.246 47.5067 20.748 50.4207C32.246 53.3347 51.3951 55.2447 73.0891 55.2447C94.7822 55.2457 113.931 53.3347 125.429 50.4207Z" fill="#CC8F33"/>
<path d="M131.025 55.9961C130.824 55.9961 130.625 55.9161 130.494 55.7751C130.355 55.6341 130.275 55.4451 130.275 55.2461C130.275 55.0451 130.355 54.8551 130.494 54.7151C130.775 54.4361 131.265 54.4361 131.545 54.7151C131.695 54.8561 131.775 55.0451 131.775 55.2461C131.775 55.4451 131.695 55.6351 131.554 55.7751C131.413 55.9161 131.214 55.9961 131.025 55.9961Z" fill="white"/>
<path d="M130.275 105.284C130.275 104.864 130.605 104.534 131.025 104.534C131.435 104.534 131.775 104.864 131.775 105.284C131.775 105.694 131.435 106.034 131.025 106.034C130.604 106.034 130.275 105.694 130.275 105.284ZM130.275 99.0251C130.275 98.6151 130.605 98.2751 131.025 98.2751C131.435 98.2751 131.775 98.6151 131.775 99.0251C131.775 99.4351 131.435 99.7751 131.025 99.7751C130.604 99.7751 130.275 99.4351 130.275 99.0251ZM130.275 92.7751C130.275 92.3551 130.605 92.0251 131.025 92.0251C131.435 92.0251 131.775 92.3551 131.775 92.7751C131.775 93.1851 131.435 93.5251 131.025 93.5251C130.604 93.5251 130.275 93.1851 130.275 92.7751ZM130.275 86.5151C130.275 86.1051 130.605 85.7651 131.025 85.7651C131.435 85.7651 131.775 86.1051 131.775 86.5151C131.775 86.9351 131.435 87.2651 131.025 87.2651C130.604 87.2651 130.275 86.9351 130.275 86.5151ZM130.275 80.2651C130.275 79.8451 130.605 79.5151 131.025 79.5151C131.435 79.5151 131.775 79.8451 131.775 80.2651C131.775 80.6751 131.435 81.0151 131.025 81.0151C130.604 81.0151 130.275 80.6751 130.275 80.2651ZM130.275 74.0051C130.275 73.5951 130.605 73.2551 131.025 73.2551C131.435 73.2551 131.775 73.5951 131.775 74.0051C131.775 74.4251 131.435 74.7551 131.025 74.7551C130.604 74.7551 130.275 74.4251 130.275 74.0051ZM130.275 67.7551C130.275 67.3451 130.605 67.0051 131.025 67.0051C131.435 67.0051 131.775 67.3451 131.775 67.7551C131.775 68.1651 131.435 68.5051 131.025 68.5051C130.604 68.5051 130.275 68.1651 130.275 67.7551ZM130.275 61.4951C130.275 61.0851 130.605 60.7451 131.025 60.7451C131.435 60.7451 131.775 61.0851 131.775 61.4951C131.775 61.9151 131.435 62.2451 131.025 62.2451C130.604 62.2451 130.275 61.9151 130.275 61.4951Z" fill="white"/>
<path d="M131.025 112.284C130.824 112.284 130.634 112.204 130.494 112.063C130.355 111.924 130.275 111.735 130.275 111.534C130.275 111.345 130.355 111.143 130.494 111.005C130.765 110.724 131.275 110.724 131.555 111.005C131.696 111.144 131.776 111.345 131.776 111.534C131.776 111.735 131.696 111.925 131.555 112.063C131.413 112.204 131.214 112.284 131.025 112.284Z" fill="white"/>
<path d="M125.304 58.0557C125.114 58.0557 124.913 57.9757 124.775 57.8347C124.634 57.6937 124.554 57.5047 124.554 57.3057C124.554 57.1147 124.634 56.9147 124.775 56.7747C125.054 56.4957 125.564 56.4957 125.834 56.7747C125.975 56.9157 126.064 57.1047 126.064 57.3057C126.064 57.5047 125.974 57.6947 125.834 57.8347C125.704 57.9757 125.505 58.0557 125.304 58.0557Z" fill="white"/>
<path d="M124.554 98.8841C124.554 98.4741 124.894 98.1341 125.314 98.1341C125.724 98.1341 126.064 98.4741 126.064 98.8841C126.064 99.3041 125.724 99.6341 125.314 99.6341C124.894 99.6341 124.554 99.3041 124.554 98.8841ZM124.554 92.9441C124.554 92.5341 124.894 92.1941 125.314 92.1941C125.724 92.1941 126.064 92.5341 126.064 92.9441C126.064 93.3641 125.724 93.6941 125.314 93.6941C124.894 93.6941 124.554 93.3641 124.554 92.9441ZM124.554 87.0051C124.554 86.5951 124.894 86.2551 125.314 86.2551C125.724 86.2551 126.064 86.5951 126.064 87.0051C126.064 87.4251 125.724 87.7551 125.314 87.7551C124.894 87.7551 124.554 87.4251 124.554 87.0051ZM124.554 81.0641C124.554 80.6561 124.894 80.3141 125.314 80.3141C125.724 80.3141 126.064 80.6561 126.064 81.0641C126.064 81.4861 125.724 81.8141 125.314 81.8141C124.894 81.8141 124.554 81.4851 124.554 81.0641ZM124.554 75.1241C124.554 74.7141 124.894 74.3741 125.314 74.3741C125.724 74.3741 126.064 74.7141 126.064 75.1241C126.064 75.5441 125.724 75.8741 125.314 75.8741C124.894 75.8741 124.554 75.5441 124.554 75.1241ZM124.554 69.1851C124.554 68.7751 124.894 68.4351 125.314 68.4351C125.724 68.4351 126.064 68.7751 126.064 69.1851C126.064 69.6051 125.724 69.9351 125.314 69.9351C124.894 69.9351 124.554 69.6041 124.554 69.1851ZM124.554 63.2451C124.554 62.8351 124.894 62.4951 125.314 62.4951C125.724 62.4951 126.064 62.8351 126.064 63.2451C126.064 63.6651 125.724 63.9951 125.314 63.9951C124.894 63.9951 124.554 63.6651 124.554 63.2451Z" fill="white"/>
<path d="M125.304 105.574C125.114 105.574 124.913 105.494 124.775 105.353C124.634 105.212 124.554 105.023 124.554 104.824C124.554 104.633 124.634 104.433 124.775 104.293C125.064 104.014 125.554 104.014 125.834 104.293C125.975 104.434 126.064 104.623 126.064 104.824C126.064 105.023 125.984 105.213 125.834 105.353C125.694 105.494 125.505 105.574 125.304 105.574Z" fill="white"/>
<path d="M119.595 58.7841C119.404 58.7841 119.204 58.7041 119.064 58.5651C118.925 58.4251 118.845 58.2351 118.845 58.0341C118.845 57.8351 118.925 57.6451 119.064 57.5051C119.345 57.2261 119.845 57.2261 120.125 57.5051C120.266 57.6461 120.346 57.8351 120.346 58.0341C120.346 58.2351 120.266 58.4251 120.125 58.5651C119.983 58.7041 119.794 58.7841 119.595 58.7841Z" fill="white"/>
<path d="M118.845 90.3251C118.845 89.9151 119.185 89.5751 119.595 89.5751C120.015 89.5751 120.345 89.9151 120.345 90.3251C120.345 90.7451 120.015 91.0751 119.595 91.0751C119.185 91.0751 118.845 90.7451 118.845 90.3251ZM118.845 83.8741C118.845 83.4541 119.185 83.1141 119.595 83.1141C120.015 83.1141 120.345 83.4541 120.345 83.8741C120.345 84.2841 120.015 84.6141 119.595 84.6141C119.185 84.6141 118.845 84.2841 118.845 83.8741ZM118.845 77.4151C118.845 76.9951 119.185 76.6651 119.595 76.6651C120.015 76.6651 120.345 76.9951 120.345 77.4151C120.345 77.8251 120.015 78.1651 119.595 78.1651C119.185 78.1651 118.845 77.8251 118.845 77.4151ZM118.845 70.9541C118.845 70.5341 119.185 70.2041 119.595 70.2041C120.015 70.2041 120.345 70.5341 120.345 70.9541C120.345 71.3641 120.015 71.7041 119.595 71.7041C119.185 71.7041 118.845 71.3641 118.845 70.9541ZM118.845 64.4951C118.845 64.0751 119.185 63.7451 119.595 63.7451C120.015 63.7451 120.345 64.0751 120.345 64.4951C120.345 64.9051 120.015 65.2451 119.595 65.2451C119.185 65.2451 118.845 64.9051 118.845 64.4951Z" fill="white"/>
<path d="M119.595 97.5337C119.404 97.5337 119.204 97.4537 119.064 97.3127C118.925 97.1737 118.845 96.9847 118.845 96.7837C118.845 96.5947 118.925 96.3927 119.064 96.2547C119.345 95.9737 119.845 95.9737 120.125 96.2547C120.266 96.3937 120.346 96.5947 120.346 96.7837C120.346 96.9847 120.266 97.1747 120.135 97.3127C119.983 97.4537 119.794 97.5337 119.595 97.5337Z" fill="white"/>
<path d="M113.884 73.044C113.695 73.044 113.493 72.964 113.355 72.825C113.214 72.684 113.134 72.495 113.134 72.294C113.134 72.095 113.214 71.905 113.355 71.765C113.644 71.476 114.134 71.486 114.414 71.755C114.555 71.905 114.635 72.095 114.635 72.294C114.635 72.495 114.555 72.685 114.414 72.825C114.275 72.964 114.083 73.044 113.884 73.044Z" fill="white"/>
<path d="M113.134 65.8545C113.134 65.4445 113.474 65.1045 113.884 65.1045C114.304 65.1045 114.634 65.4445 114.634 65.8545C114.634 66.2745 114.304 66.6045 113.884 66.6045C113.474 66.6045 113.134 66.2755 113.134 65.8545Z" fill="white"/>
<path d="M113.884 60.1753C113.695 60.1753 113.493 60.0953 113.355 59.9543C113.214 59.8153 113.134 59.6243 113.134 59.4253C113.134 59.2263 113.214 59.0343 113.355 58.8963C113.644 58.6153 114.134 58.6153 114.414 58.8963C114.555 59.0353 114.635 59.2263 114.635 59.4253C114.635 59.6243 114.555 59.8163 114.414 59.9543C114.275 60.0953 114.083 60.1753 113.884 60.1753Z" fill="white"/>
</svg>
