<svg width="163" height="64" viewBox="0 0 163 64" fill="none" xmlns="http://www.w3.org/2000/svg">
<mask id="mask0_62_38667" style="mask-type:luminance" maskUnits="userSpaceOnUse" x="0" y="0" width="163" height="64">
<path d="M163 0H0V63.2H163V0Z" fill="white"/>
</mask>
<g mask="url(#mask0_62_38667)">
<path d="M26.92 46.9998C26.87 47.1798 26.68 47.2698 26.36 47.2698H20.19C19.9975 47.273 19.8069 47.2312 19.6333 47.1479C19.4598 47.0646 19.308 46.942 19.19 46.7898L9 33.7798L6.17 36.4898V46.5498C6.18337 46.6436 6.17473 46.7391 6.14478 46.8289C6.11483 46.9187 6.06439 47.0003 5.99745 47.0673C5.9305 47.1342 5.8489 47.1847 5.75909 47.2146C5.66928 47.2446 5.57373 47.2532 5.48 47.2398H0.690005C0.59628 47.2532 0.500732 47.2446 0.410922 47.2146C0.321111 47.1847 0.239505 47.1342 0.172561 47.0673C0.105618 47.0003 0.055175 46.9187 0.0252251 46.8289C-0.00472474 46.7391 -0.0133593 46.6436 4.6785e-06 46.5498V0.689842C-0.0133593 0.596117 -0.00472474 0.500569 0.0252251 0.410759C0.055175 0.320948 0.105618 0.239342 0.172561 0.172399C0.239505 0.105455 0.321111 0.0550121 0.410922 0.0250622C0.500732 -0.00488762 0.59628 -0.0135222 0.690005 -0.000158204H5.48C5.57373 -0.0135222 5.66928 -0.00488762 5.75909 0.0250622C5.8489 0.0550121 5.9305 0.105455 5.99745 0.172399C6.06439 0.239342 6.11483 0.320948 6.14478 0.410759C6.17473 0.500569 6.18337 0.596117 6.17 0.689842V28.9298L18.38 16.5798C18.5058 16.4359 18.659 16.3184 18.8307 16.2343C19.0024 16.1501 19.1891 16.101 19.38 16.0898H25.77C25.8873 16.0803 26.0045 16.1093 26.1038 16.1725C26.2031 16.2357 26.279 16.3295 26.32 16.4398C26.3695 16.5406 26.3892 16.6534 26.3768 16.765C26.3644 16.8766 26.3204 16.9824 26.25 17.0698L13.32 29.5498L26.78 46.2698C26.8752 46.3626 26.9396 46.4823 26.9646 46.6129C26.9897 46.7434 26.9741 46.8784 26.92 46.9998ZM51.93 47.2398H47.14C46.63 47.2398 46.38 47.0098 46.38 46.5498V45.5498C44.0878 47.1509 41.3336 47.9554 38.54 47.8398C35.7836 47.898 33.1014 46.9446 31 45.1598C29.9876 44.287 29.1822 43.1997 28.6426 41.9768C28.1029 40.7538 27.8424 39.426 27.88 38.0898C27.88 33.5498 30.7 30.4732 36.34 28.8598C39.6414 28.0259 43.0063 27.4673 46.4 27.1898C46.5118 26.3741 46.4381 25.5436 46.1842 24.7603C45.9303 23.9771 45.5029 23.2612 44.9338 22.6662C44.3647 22.0711 43.6686 21.6122 42.8975 21.3237C42.1263 21.0352 41.2999 20.9245 40.48 20.9998C37.6223 21.0938 34.862 22.0604 32.57 23.7698C32.16 24.0098 31.86 23.9598 31.67 23.6398L29.17 20.0998C28.94 19.8198 29.01 19.4998 29.38 19.0998C32.611 16.756 36.4887 15.4704 40.48 15.4198C43.1435 15.36 45.7635 16.1021 48 17.5498C51.06 19.5898 52.5867 22.8498 52.58 27.3298V46.5498C52.5922 46.6399 52.5841 46.7315 52.5563 46.818C52.5285 46.9045 52.4818 46.9837 52.4195 47.0498C52.3572 47.1159 52.2809 47.1673 52.1963 47.2002C52.1116 47.2331 52.0206 47.2466 51.93 47.2398ZM46.38 32.7398C41.8467 33.2065 38.7467 33.8098 37.08 34.5498C34.82 35.5165 33.7933 36.9032 34 38.7098C34.064 39.2055 34.2337 39.6817 34.4977 40.1061C34.7617 40.5305 35.1137 40.8933 35.53 41.1698C36.4112 41.7997 37.4495 42.1735 38.53 42.2498C39.9348 42.4283 41.3618 42.2902 42.7063 41.8455C44.0508 41.4008 45.2787 40.6608 46.3 39.6798L46.38 32.7398ZM81 59.2798C78.46 61.8932 74.88 63.1998 70.26 63.1998C67.5862 63.2064 64.9568 62.5172 62.63 61.1998C62.12 60.8698 61.52 60.4398 60.82 59.9098C60.12 59.3798 59.32 58.7198 58.39 57.9098C58.2507 57.7849 58.1655 57.6107 58.1524 57.424C58.1393 57.2374 58.1994 57.0529 58.32 56.9098L61.58 53.6498C61.6543 53.5788 61.7422 53.5235 61.8385 53.4874C61.9347 53.4513 62.0373 53.4352 62.14 53.4398C62.2316 53.44 62.3222 53.4587 62.4064 53.4948C62.4906 53.5309 62.5667 53.5836 62.63 53.6498C65.21 56.2298 67.74 57.5298 70.19 57.5298C75.7833 57.5298 78.58 54.6165 78.58 48.7898V45.1598C76.1057 47.0683 73.0307 48.0295 69.91 47.8698C67.871 47.9517 65.843 47.5323 64.0038 46.6484C62.1645 45.7645 60.57 44.4431 59.36 42.7998C57.0422 39.5473 55.8612 35.6214 56 31.6298C55.8795 27.7734 57.0013 23.9803 59.2 20.8098C60.3664 19.0889 61.9535 17.6948 63.8106 16.7601C65.6676 15.8255 67.7329 15.3813 69.81 15.4698C72.9454 15.3632 76.025 16.3181 78.55 18.1798V16.7898C78.537 16.6958 78.5459 16.5999 78.5758 16.5098C78.6057 16.4197 78.656 16.3376 78.7227 16.2699C78.7893 16.2023 78.8707 16.1509 78.9604 16.1197C79.0501 16.0884 79.1457 16.0782 79.24 16.0898H84.03C84.125 16.0765 84.2219 16.0855 84.3129 16.1159C84.4039 16.1464 84.4865 16.1976 84.5544 16.2654C84.6223 16.3333 84.6734 16.416 84.7039 16.507C84.7344 16.598 84.7433 16.6948 84.73 16.7898V47.7898C84.75 52.8365 83.5067 56.6665 81 59.2798ZM78.58 25.9998C77.42 23.0398 74.7533 21.5598 70.58 21.5598C65.1733 21.5598 62.47 24.9332 62.47 31.6798C62.47 35.4332 63.37 38.1632 65.17 39.8698C65.8566 40.5402 66.6728 41.0634 67.5687 41.4073C68.4645 41.7512 69.4212 41.9086 70.38 41.8698C74.72 41.8698 77.47 40.3898 78.63 37.4298L78.58 25.9998ZM113.59 59.2798C111.07 61.8865 107.497 63.1932 102.87 63.1998C100.196 63.205 97.5673 62.5159 95.24 61.1998C94.7333 60.8732 94.1333 60.4432 93.44 59.9098C92.74 59.3798 91.93 58.7198 91.01 57.9098C90.9387 57.8495 90.8802 57.7754 90.838 57.6921C90.7958 57.6087 90.7707 57.5178 90.7642 57.4246C90.7576 57.3314 90.7698 57.2379 90.8 57.1494C90.8302 57.061 90.8778 56.9796 90.94 56.9098L94.2 53.6498C94.2724 53.5791 94.3586 53.5239 94.4532 53.4878C94.5478 53.4517 94.6488 53.4354 94.75 53.4398C94.8417 53.4395 94.9325 53.4579 95.0168 53.494C95.1011 53.5301 95.177 53.5832 95.24 53.6498C97.83 56.2298 100.35 57.5298 102.8 57.5298C108.4 57.5298 111.2 54.6165 111.2 48.7898V45.1598C108.721 47.0674 105.644 48.0283 102.52 47.8698C100.486 47.9485 98.4632 47.5275 96.6293 46.6436C94.7953 45.7598 93.2059 44.44 92 42.7998C89.688 39.5459 88.5172 35.6186 88.67 31.6298C88.5465 27.7745 89.6648 23.9815 91.86 20.8098C93.0278 19.0902 94.6152 17.6972 96.4719 16.7627C98.3286 15.8282 100.393 15.3832 102.47 15.4698C105.608 15.3665 108.69 16.3209 111.22 18.1798V16.7898C111.207 16.6958 111.216 16.5999 111.246 16.5098C111.276 16.4197 111.326 16.3376 111.393 16.2699C111.459 16.2023 111.541 16.1509 111.63 16.1197C111.72 16.0884 111.816 16.0782 111.91 16.0898H116.7C116.794 16.0782 116.89 16.0884 116.98 16.1197C117.069 16.1509 117.151 16.2023 117.217 16.2699C117.284 16.3376 117.334 16.4197 117.364 16.5098C117.394 16.5999 117.403 16.6958 117.39 16.7898V47.7898C117.377 52.8365 116.11 56.6665 113.59 59.2798ZM111.2 25.9998C110.04 23.0398 107.373 21.5598 103.2 21.5598C97.7333 21.5265 95 24.8832 95 31.6298C95 35.3832 95.9033 38.1132 97.71 39.8198C98.3937 40.4914 99.208 41.0154 100.102 41.3595C100.997 41.7035 101.953 41.8602 102.91 41.8198C107.263 41.8198 110.017 40.3398 111.17 37.3798L111.2 25.9998ZM128 47.2398H123.22C123.126 47.2528 123.03 47.244 122.94 47.2141C122.85 47.1841 122.768 47.1339 122.7 47.0672C122.632 47.0005 122.581 46.9192 122.55 46.8295C122.519 46.7398 122.508 46.6441 122.52 46.5498V0.689842C122.508 0.595573 122.519 0.499895 122.55 0.410194C122.581 0.320492 122.632 0.239164 122.7 0.172487C122.768 0.105809 122.85 0.0555649 122.94 0.0256308C123.03 -0.00430327 123.126 -0.0131266 123.22 -0.000158204H128C128.094 -0.0152675 128.191 -0.00794121 128.282 0.0212288C128.373 0.0503989 128.456 0.100595 128.525 0.167761C128.593 0.234926 128.644 0.317179 128.675 0.407872C128.705 0.498566 128.714 0.595157 128.7 0.689842V46.5498C128.714 46.6445 128.705 46.7411 128.675 46.8318C128.644 46.9225 128.593 47.0048 128.525 47.0719C128.456 47.1391 128.373 47.1893 128.282 47.2185C128.191 47.2476 128.094 47.255 128 47.2398ZM162.91 33.1598C162.922 33.2541 162.911 33.3498 162.88 33.4395C162.849 33.5292 162.798 33.6105 162.73 33.6772C162.662 33.7439 162.58 33.7941 162.49 33.8241C162.4 33.854 162.304 33.8628 162.21 33.8498H139.67C139.899 36.0422 140.937 38.0707 142.58 39.5398C144.581 41.2084 147.126 42.0839 149.73 41.9998C152.186 42.025 154.587 41.2724 156.59 39.8498C157.01 39.5698 157.36 39.5698 157.59 39.8498L160.85 43.1798C161.22 43.5498 161.22 43.8698 160.85 44.1798C157.514 46.6821 153.44 48.0016 149.27 47.9298C147.085 47.9908 144.911 47.6035 142.881 46.7917C140.852 45.9799 139.01 44.7609 137.47 43.2098C135.948 41.6432 134.759 39.7849 133.973 37.7467C133.188 35.7086 132.823 33.5327 132.9 31.3498C132.849 29.2264 133.222 27.1142 133.997 25.1363C134.771 23.1585 135.931 21.3546 137.41 19.8298C138.813 18.3973 140.501 17.2746 142.365 16.534C144.228 15.7934 146.226 15.4514 148.23 15.5298C150.22 15.479 152.199 15.8511 154.035 16.6217C155.871 17.3922 157.522 18.5436 158.88 19.9998C160.352 21.5354 161.481 23.3665 162.191 25.3716C162.901 27.3767 163.177 29.51 163 31.6298L162.91 33.1598ZM153.82 22.9998C152.27 21.5784 150.233 20.8085 148.13 20.8498C146.107 20.8309 144.151 21.5733 142.65 22.9298C141.058 24.3349 139.999 26.2454 139.65 28.3398H156.36C156.352 27.3183 156.12 26.311 155.682 25.3885C155.243 24.466 154.607 23.6507 153.82 22.9998Z" fill="#00EBA5"/>
</g>
</svg>
